G04 #@! TF.GenerationSoftware,KiCad,Pcbnew,7.0.11+dfsg-1build4*
G04 #@! TF.CreationDate,2026-09-30T09:07:17+02:00*
G04 #@! TF.ProjectId,diplexor_2m70cm_SMA,6469706c-6578-46f7-925f-326d3730636d,rev?*
G04 #@! TF.SameCoordinates,Original*
G04 #@! TF.FileFunction,Copper,L1,Top*
G04 #@! TF.FilePolarity,Positive*
%FSLAX46Y46*%
G04 Gerber Fmt 4.6, Leading zero omitted, Abs format (unit mm)*
G04 Created by KiCad (PCBNEW 7.0.11+dfsg-1build4) date 2026-09-30 09:07:17*
%MOMM*%
%LPD*%
G01*
G04 APERTURE LIST*
G04 Aperture macros list*
%AMRoundRect*
0 Rectangle with rounded corners*
0 $1 Rounding radius*
0 $2 $3 $4 $5 $6 $7 $8 $9 X,Y pos of 4 corners*
0 Add a 4 corners polygon primitive as box body*
4,1,4,$2,$3,$4,$5,$6,$7,$8,$9,$2,$3,0*
0 Add four circle primitives for the rounded corners*
1,1,$1+$1,$2,$3*
1,1,$1+$1,$4,$5*
1,1,$1+$1,$6,$7*
1,1,$1+$1,$8,$9*
0 Add four rect primitives between the rounded corners*
20,1,$1+$1,$2,$3,$4,$5,0*
20,1,$1+$1,$4,$5,$6,$7,0*
20,1,$1+$1,$6,$7,$8,$9,0*
20,1,$1+$1,$8,$9,$2,$3,0*%
G04 Aperture macros list end*
G04 #@! TA.AperFunction,SMDPad,CuDef*
%ADD10RoundRect,0.250000X0.475000X-0.337500X0.475000X0.337500X-0.475000X0.337500X-0.475000X-0.337500X0*%
G04 #@! TD*
G04 #@! TA.AperFunction,SMDPad,CuDef*
%ADD11R,4.730000X1.500000*%
G04 #@! TD*
G04 #@! TA.AperFunction,SMDPad,CuDef*
%ADD12RoundRect,0.250000X-0.337500X-0.475000X0.337500X-0.475000X0.337500X0.475000X-0.337500X0.475000X0*%
G04 #@! TD*
G04 #@! TA.AperFunction,ComponentPad*
%ADD13C,0.700000*%
G04 #@! TD*
G04 #@! TA.AperFunction,ComponentPad*
%ADD14C,4.400000*%
G04 #@! TD*
G04 #@! TA.AperFunction,SMDPad,CuDef*
%ADD15RoundRect,0.250000X-0.325000X-0.450000X0.325000X-0.450000X0.325000X0.450000X-0.325000X0.450000X0*%
G04 #@! TD*
G04 #@! TA.AperFunction,SMDPad,CuDef*
%ADD16RoundRect,0.250000X-0.450000X0.325000X-0.450000X-0.325000X0.450000X-0.325000X0.450000X0.325000X0*%
G04 #@! TD*
G04 #@! TA.AperFunction,ViaPad*
%ADD17C,0.800000*%
G04 #@! TD*
G04 #@! TA.AperFunction,Conductor*
%ADD18C,1.400000*%
G04 #@! TD*
G04 APERTURE END LIST*
D10*
G04 #@! TO.P,C2,1*
G04 #@! TO.N,N2*
X124400000Y-105497500D03*
G04 #@! TO.P,C2,2*
G04 #@! TO.N,GND*
X124400000Y-103422500D03*
G04 #@! TD*
D11*
G04 #@! TO.P,J1,1*
G04 #@! TO.N,RADIO*
X102540000Y-111500000D03*
G04 #@! TO.P,J1,2*
G04 #@! TO.N,GND*
X102540000Y-115750000D03*
X102540000Y-107250000D03*
G04 #@! TD*
D12*
G04 #@! TO.P,C3,1*
G04 #@! TO.N,RADIO*
X108362500Y-117500000D03*
G04 #@! TO.P,C3,2*
G04 #@! TO.N,N3*
X110437500Y-117500000D03*
G04 #@! TD*
D13*
G04 #@! TO.P,H1,1*
G04 #@! TO.N,GND*
X112750000Y-111500000D03*
X113233274Y-110333274D03*
X113233274Y-112666726D03*
X114400000Y-109850000D03*
D14*
X114400000Y-111500000D03*
D13*
X114400000Y-113150000D03*
X115566726Y-110333274D03*
X115566726Y-112666726D03*
X116050000Y-111500000D03*
G04 #@! TD*
D12*
G04 #@! TO.P,C4,1*
G04 #@! TO.N,N3*
X118362500Y-117500000D03*
G04 #@! TO.P,C4,2*
G04 #@! TO.N,N4*
X120437500Y-117500000D03*
G04 #@! TD*
D13*
G04 #@! TO.P,H2,1*
G04 #@! TO.N,GND*
X122750000Y-111500000D03*
X123233274Y-110333274D03*
X123233274Y-112666726D03*
X124400000Y-109850000D03*
D14*
X124400000Y-111500000D03*
D13*
X124400000Y-113150000D03*
X125566726Y-110333274D03*
X125566726Y-112666726D03*
X126050000Y-111500000D03*
G04 #@! TD*
D11*
G04 #@! TO.P,J2,1*
G04 #@! TO.N,OUT_2M*
X134460000Y-105500000D03*
G04 #@! TO.P,J2,2*
G04 #@! TO.N,GND*
X134460000Y-101250000D03*
X134460000Y-109750000D03*
G04 #@! TD*
G04 #@! TO.P,J3,1*
G04 #@! TO.N,OUT_70CM*
X134460000Y-117500000D03*
G04 #@! TO.P,J3,2*
G04 #@! TO.N,GND*
X134460000Y-113250000D03*
X134460000Y-121750000D03*
G04 #@! TD*
D10*
G04 #@! TO.P,C1,1*
G04 #@! TO.N,N1*
X114400000Y-105497500D03*
G04 #@! TO.P,C1,2*
G04 #@! TO.N,GND*
X114400000Y-103422500D03*
G04 #@! TD*
D15*
G04 #@! TO.P,L3,1*
G04 #@! TO.N,N2*
X128375000Y-105500000D03*
G04 #@! TO.P,L3,2*
G04 #@! TO.N,OUT_2M*
X130425000Y-105500000D03*
G04 #@! TD*
D12*
G04 #@! TO.P,C5,1*
G04 #@! TO.N,N4*
X128362500Y-117500000D03*
G04 #@! TO.P,C5,2*
G04 #@! TO.N,OUT_70CM*
X130437500Y-117500000D03*
G04 #@! TD*
D15*
G04 #@! TO.P,L1,1*
G04 #@! TO.N,RADIO*
X108375000Y-105500000D03*
G04 #@! TO.P,L1,2*
G04 #@! TO.N,N1*
X110425000Y-105500000D03*
G04 #@! TD*
D16*
G04 #@! TO.P,L4,1*
G04 #@! TO.N,N3*
X114400000Y-117495000D03*
G04 #@! TO.P,L4,2*
G04 #@! TO.N,GND*
X114400000Y-119545000D03*
G04 #@! TD*
G04 #@! TO.P,L5,1*
G04 #@! TO.N,N4*
X124400000Y-117495000D03*
G04 #@! TO.P,L5,2*
G04 #@! TO.N,GND*
X124400000Y-119545000D03*
G04 #@! TD*
D15*
G04 #@! TO.P,L2,1*
G04 #@! TO.N,N1*
X118375000Y-105500000D03*
G04 #@! TO.P,L2,2*
G04 #@! TO.N,N2*
X120425000Y-105500000D03*
G04 #@! TD*
D17*
G04 #@! TO.N,GND*
X115300000Y-102072500D03*
X133320000Y-107300000D03*
X117382382Y-103699375D03*
X108200000Y-110750000D03*
X101500000Y-113500000D03*
X131399374Y-119300000D03*
X107500000Y-101500000D03*
X108200000Y-113750000D03*
X115300000Y-120895000D03*
X107387500Y-103700000D03*
X101500000Y-104500000D03*
X125300000Y-102072500D03*
X119500000Y-101500000D03*
X101500000Y-119500000D03*
X111430396Y-119298748D03*
X110500000Y-110500000D03*
X113500000Y-102072500D03*
X121430396Y-119298748D03*
X113500000Y-120895000D03*
X133323125Y-115700000D03*
X103636250Y-109700000D03*
X131390000Y-103700000D03*
X131500000Y-101500000D03*
X131500000Y-110500000D03*
X110500000Y-101500000D03*
X104500000Y-101500000D03*
X119500000Y-119500000D03*
X107381250Y-119300000D03*
X127369603Y-119298748D03*
X101500000Y-101500000D03*
X131399374Y-115700000D03*
X127382382Y-103699375D03*
X121417617Y-103699375D03*
X131500000Y-113500000D03*
X125300000Y-120895000D03*
X128500000Y-101500000D03*
X133320000Y-103700000D03*
X108200000Y-107750000D03*
X133323125Y-119300000D03*
X131390000Y-107300000D03*
X111417617Y-103699375D03*
X128500000Y-110500000D03*
X104500000Y-104500000D03*
X123500000Y-102072500D03*
X104500000Y-119500000D03*
X103636250Y-113300000D03*
X123500000Y-120895000D03*
X117369603Y-119298748D03*
G04 #@! TD*
D18*
G04 #@! TO.N,RADIO*
X102715000Y-111500000D02*
X106400000Y-111500000D01*
X106400000Y-105500000D02*
X108375000Y-105500000D01*
X106400000Y-111500000D02*
X106400000Y-105500000D01*
X106400000Y-117500000D02*
X108362500Y-117500000D01*
X106400000Y-111500000D02*
X106400000Y-117500000D01*
G04 #@! TO.N,N1*
X114400000Y-105497500D02*
X118375000Y-105500000D01*
X110425000Y-105500000D02*
X114400000Y-105497500D01*
G04 #@! TO.N,N2*
X124400000Y-105497500D02*
X128375000Y-105500000D01*
X120425000Y-105500000D02*
X124400000Y-105497500D01*
G04 #@! TO.N,OUT_2M*
X130425000Y-105500000D02*
X134285000Y-105500000D01*
G04 #@! TO.N,N3*
X114400000Y-117495000D02*
X118362500Y-117500000D01*
X110437500Y-117500000D02*
X114400000Y-117495000D01*
G04 #@! TO.N,N4*
X120437500Y-117500000D02*
X124400000Y-117495000D01*
X124400000Y-117495000D02*
X128362500Y-117500000D01*
G04 #@! TO.N,OUT_70CM*
X130437500Y-117500000D02*
X134285000Y-117500000D01*
G04 #@! TD*
G04 #@! TA.AperFunction,Conductor*
G04 #@! TO.N,GND*
G36*
X100193388Y-112446630D02*
G01*
X100252260Y-112485966D01*
X100252262Y-112485966D01*
X100252264Y-112485967D01*
X100325321Y-112500499D01*
X100325324Y-112500500D01*
X100325326Y-112500500D01*
X105104676Y-112500500D01*
X105141207Y-112493233D01*
X105177740Y-112485966D01*
X105199545Y-112471396D01*
X105266222Y-112450520D01*
X105268434Y-112450500D01*
X105325500Y-112450500D01*
X105392539Y-112470185D01*
X105438294Y-112522989D01*
X105449500Y-112574500D01*
X105449500Y-117472759D01*
X105449341Y-117479039D01*
X105445824Y-117548389D01*
X105445824Y-117548390D01*
X105456335Y-117617010D01*
X105457129Y-117623239D01*
X105464154Y-117692320D01*
X105464155Y-117692323D01*
X105468595Y-117706476D01*
X105472849Y-117724810D01*
X105475094Y-117739465D01*
X105475096Y-117739473D01*
X105499208Y-117804576D01*
X105501237Y-117810510D01*
X105517833Y-117863407D01*
X105522025Y-117876765D01*
X105522028Y-117876772D01*
X105529224Y-117889736D01*
X105537086Y-117906847D01*
X105542236Y-117920753D01*
X105578957Y-117979668D01*
X105582142Y-117985079D01*
X105615841Y-118045791D01*
X105625500Y-118057043D01*
X105636642Y-118072215D01*
X105644491Y-118084807D01*
X105692354Y-118135158D01*
X105696542Y-118139795D01*
X105741758Y-118192467D01*
X105753484Y-118201543D01*
X105767455Y-118214165D01*
X105777677Y-118224919D01*
X105834689Y-118264601D01*
X105839711Y-118268288D01*
X105894627Y-118310796D01*
X105907938Y-118317325D01*
X105924166Y-118326878D01*
X105936337Y-118335350D01*
X105936338Y-118335350D01*
X105936342Y-118335353D01*
X105988738Y-118357838D01*
X106000152Y-118362736D01*
X106005860Y-118365359D01*
X106041733Y-118382955D01*
X106068182Y-118395929D01*
X106068183Y-118395929D01*
X106068184Y-118395930D01*
X106082539Y-118399646D01*
X106100358Y-118405738D01*
X106113984Y-118411586D01*
X106113987Y-118411586D01*
X106113988Y-118411587D01*
X106182020Y-118425567D01*
X106188097Y-118426977D01*
X106255326Y-118444385D01*
X106263148Y-118444781D01*
X106270138Y-118445136D01*
X106288812Y-118447513D01*
X106303344Y-118450500D01*
X106372761Y-118450500D01*
X106379039Y-118450658D01*
X106448390Y-118454176D01*
X106459948Y-118452405D01*
X106463052Y-118451930D01*
X106481828Y-118450500D01*
X107845300Y-118450500D01*
X107888632Y-118458317D01*
X107909823Y-118466221D01*
X107917511Y-118469089D01*
X107917517Y-118469091D01*
X107977127Y-118475500D01*
X108747872Y-118475499D01*
X108807483Y-118469091D01*
X108942331Y-118418796D01*
X109057546Y-118332546D01*
X109143796Y-118217331D01*
X109194091Y-118082483D01*
X109200500Y-118022873D01*
X109200499Y-117978689D01*
X109213171Y-117924080D01*
X109258430Y-117831816D01*
X109277967Y-117756358D01*
X109313825Y-117696397D01*
X109376411Y-117665338D01*
X109445854Y-117673046D01*
X109500106Y-117717075D01*
X109514233Y-117744229D01*
X109580266Y-117921832D01*
X109580268Y-117921835D01*
X109580652Y-117922449D01*
X109580766Y-117922846D01*
X109583045Y-117927478D01*
X109582211Y-117927887D01*
X109599500Y-117988166D01*
X109599500Y-118022868D01*
X109599501Y-118022877D01*
X109605908Y-118082483D01*
X109656202Y-118217328D01*
X109656206Y-118217335D01*
X109742452Y-118332544D01*
X109742455Y-118332547D01*
X109857664Y-118418793D01*
X109857671Y-118418797D01*
X109879622Y-118426984D01*
X109992517Y-118469091D01*
X110052127Y-118475500D01*
X110822872Y-118475499D01*
X110882483Y-118469091D01*
X110913123Y-118457662D01*
X110956292Y-118449845D01*
X114399945Y-118445500D01*
X117843705Y-118449845D01*
X117886878Y-118457663D01*
X117917517Y-118469091D01*
X117977127Y-118475500D01*
X118747872Y-118475499D01*
X118807483Y-118469091D01*
X118942331Y-118418796D01*
X119057546Y-118332546D01*
X119143796Y-118217331D01*
X119194091Y-118082483D01*
X119200500Y-118022873D01*
X119200499Y-117978674D01*
X119213239Y-117923926D01*
X119258010Y-117832946D01*
X119277992Y-117756171D01*
X119313928Y-117696252D01*
X119376554Y-117665273D01*
X119445987Y-117673069D01*
X119500183Y-117717167D01*
X119514218Y-117744187D01*
X119580268Y-117921835D01*
X119580269Y-117921836D01*
X119580652Y-117922449D01*
X119580766Y-117922846D01*
X119583045Y-117927478D01*
X119582211Y-117927887D01*
X119599500Y-117988166D01*
X119599500Y-118022868D01*
X119599501Y-118022877D01*
X119605908Y-118082483D01*
X119656202Y-118217328D01*
X119656206Y-118217335D01*
X119742452Y-118332544D01*
X119742455Y-118332547D01*
X119857664Y-118418793D01*
X119857671Y-118418797D01*
X119879622Y-118426984D01*
X119992517Y-118469091D01*
X120052127Y-118475500D01*
X120822872Y-118475499D01*
X120882483Y-118469091D01*
X120913123Y-118457662D01*
X120956292Y-118449845D01*
X124399945Y-118445500D01*
X127843705Y-118449845D01*
X127886878Y-118457663D01*
X127917517Y-118469091D01*
X127977127Y-118475500D01*
X128747872Y-118475499D01*
X128807483Y-118469091D01*
X128942331Y-118418796D01*
X129057546Y-118332546D01*
X129143796Y-118217331D01*
X129194091Y-118082483D01*
X129200500Y-118022873D01*
X129200499Y-117978674D01*
X129213239Y-117923926D01*
X129258010Y-117832946D01*
X129278043Y-117755975D01*
X129313979Y-117696056D01*
X129376605Y-117665077D01*
X129446038Y-117672873D01*
X129500234Y-117716971D01*
X129514326Y-117744143D01*
X129563447Y-117876772D01*
X129579736Y-117920753D01*
X129580734Y-117922355D01*
X129581031Y-117923393D01*
X129582505Y-117926397D01*
X129581966Y-117926661D01*
X129599500Y-117987939D01*
X129599500Y-118022868D01*
X129599501Y-118022877D01*
X129605908Y-118082483D01*
X129656202Y-118217328D01*
X129656206Y-118217335D01*
X129742452Y-118332544D01*
X129742455Y-118332547D01*
X129857664Y-118418793D01*
X129857671Y-118418797D01*
X129879622Y-118426984D01*
X129992517Y-118469091D01*
X130052127Y-118475500D01*
X130822872Y-118475499D01*
X130882483Y-118469091D01*
X130911367Y-118458317D01*
X130954700Y-118450500D01*
X131731566Y-118450500D01*
X131798605Y-118470185D01*
X131800425Y-118471376D01*
X131822260Y-118485966D01*
X131840526Y-118489599D01*
X131895323Y-118500500D01*
X131895326Y-118500500D01*
X136674676Y-118500500D01*
X136674677Y-118500499D01*
X136747740Y-118485966D01*
X136806610Y-118446630D01*
X136873287Y-118425753D01*
X136940667Y-118444238D01*
X136987357Y-118496217D01*
X136999500Y-118549733D01*
X136999500Y-122875500D01*
X136979815Y-122942539D01*
X136927011Y-122988294D01*
X136875500Y-122999500D01*
X100124500Y-122999500D01*
X100057461Y-122979815D01*
X100011706Y-122927011D01*
X100000500Y-122875500D01*
X100000500Y-112549733D01*
X100020185Y-112482694D01*
X100072989Y-112436939D01*
X100142147Y-112426995D01*
X100193388Y-112446630D01*
G37*
G04 #@! TD.AperFunction*
G04 #@! TA.AperFunction,Conductor*
G36*
X129448170Y-105712547D02*
G01*
X129502394Y-105756609D01*
X129516531Y-105783847D01*
X129567234Y-105920750D01*
X129567240Y-105920761D01*
X129581186Y-105943136D01*
X129599243Y-105995472D01*
X129605908Y-106057483D01*
X129656202Y-106192328D01*
X129656206Y-106192335D01*
X129742452Y-106307544D01*
X129742455Y-106307547D01*
X129857664Y-106393793D01*
X129857671Y-106393797D01*
X129902618Y-106410561D01*
X129992517Y-106444091D01*
X130052127Y-106450500D01*
X130313901Y-106450499D01*
X130313911Y-106450500D01*
X130328344Y-106450500D01*
X131731566Y-106450500D01*
X131798605Y-106470185D01*
X131800425Y-106471376D01*
X131822260Y-106485966D01*
X131840526Y-106489599D01*
X131895323Y-106500500D01*
X131895326Y-106500500D01*
X136674676Y-106500500D01*
X136674677Y-106500499D01*
X136747740Y-106485966D01*
X136806610Y-106446630D01*
X136873287Y-106425753D01*
X136940667Y-106444238D01*
X136987357Y-106496217D01*
X136999500Y-106549733D01*
X136999500Y-116450266D01*
X136979815Y-116517305D01*
X136927011Y-116563060D01*
X136857853Y-116573004D01*
X136806610Y-116553369D01*
X136747739Y-116514033D01*
X136747735Y-116514032D01*
X136674677Y-116499500D01*
X136674674Y-116499500D01*
X131895326Y-116499500D01*
X131895324Y-116499500D01*
X131822261Y-116514033D01*
X131822260Y-116514034D01*
X131800454Y-116528603D01*
X131733778Y-116549480D01*
X131731566Y-116549500D01*
X130954700Y-116549500D01*
X130911367Y-116541682D01*
X130902551Y-116538394D01*
X130882485Y-116530909D01*
X130872308Y-116529815D01*
X130822873Y-116524500D01*
X130822863Y-116524500D01*
X130052129Y-116524500D01*
X130052123Y-116524501D01*
X129992516Y-116530908D01*
X129857671Y-116581202D01*
X129857664Y-116581206D01*
X129742455Y-116667452D01*
X129742452Y-116667455D01*
X129656206Y-116782664D01*
X129656202Y-116782671D01*
X129605908Y-116917517D01*
X129599501Y-116977116D01*
X129599501Y-116977123D01*
X129599500Y-116977135D01*
X129599500Y-117021309D01*
X129586828Y-117075917D01*
X129541570Y-117168183D01*
X129541569Y-117168185D01*
X129521931Y-117244030D01*
X129486071Y-117303995D01*
X129423483Y-117335053D01*
X129354040Y-117327344D01*
X129299789Y-117283314D01*
X129285555Y-117255867D01*
X129220796Y-117080335D01*
X129220793Y-117080329D01*
X129220792Y-117080328D01*
X129219183Y-117077738D01*
X129218700Y-117076049D01*
X129218031Y-117074679D01*
X129218275Y-117074559D01*
X129200499Y-117012281D01*
X129200499Y-116977129D01*
X129200498Y-116977123D01*
X129200497Y-116977116D01*
X129194091Y-116917517D01*
X129143796Y-116782669D01*
X129143795Y-116782668D01*
X129143793Y-116782664D01*
X129057547Y-116667455D01*
X129057544Y-116667452D01*
X128942335Y-116581206D01*
X128942328Y-116581202D01*
X128807486Y-116530910D01*
X128807485Y-116530909D01*
X128807483Y-116530909D01*
X128747873Y-116524500D01*
X128747863Y-116524500D01*
X127977129Y-116524500D01*
X127977123Y-116524501D01*
X127917516Y-116530908D01*
X127890376Y-116541031D01*
X127846890Y-116548848D01*
X124504011Y-116544630D01*
X124498968Y-116544374D01*
X124400208Y-116544498D01*
X124399899Y-116544498D01*
X124352523Y-116544439D01*
X124347548Y-116544565D01*
X120953109Y-116548848D01*
X120909621Y-116541030D01*
X120882488Y-116530910D01*
X120882484Y-116530909D01*
X120882483Y-116530909D01*
X120822873Y-116524500D01*
X120822863Y-116524500D01*
X120052129Y-116524500D01*
X120052123Y-116524501D01*
X119992516Y-116530908D01*
X119857671Y-116581202D01*
X119857664Y-116581206D01*
X119742455Y-116667452D01*
X119742452Y-116667455D01*
X119656206Y-116782664D01*
X119656202Y-116782671D01*
X119605908Y-116917517D01*
X119599501Y-116977116D01*
X119599501Y-116977123D01*
X119599500Y-116977135D01*
X119599500Y-117021290D01*
X119586897Y-117075758D01*
X119541153Y-117169312D01*
X119541150Y-117169320D01*
X119521955Y-117243840D01*
X119486170Y-117303850D01*
X119423622Y-117334987D01*
X119354169Y-117327365D01*
X119299863Y-117283404D01*
X119285543Y-117255836D01*
X119220794Y-117080330D01*
X119219183Y-117077738D01*
X119218700Y-117076049D01*
X119218031Y-117074679D01*
X119218275Y-117074559D01*
X119200499Y-117012281D01*
X119200499Y-116977129D01*
X119200498Y-116977123D01*
X119200497Y-116977116D01*
X119194091Y-116917517D01*
X119143796Y-116782669D01*
X119143795Y-116782668D01*
X119143793Y-116782664D01*
X119057547Y-116667455D01*
X119057544Y-116667452D01*
X118942335Y-116581206D01*
X118942328Y-116581202D01*
X118807486Y-116530910D01*
X118807485Y-116530909D01*
X118807483Y-116530909D01*
X118747873Y-116524500D01*
X118747863Y-116524500D01*
X117977129Y-116524500D01*
X117977123Y-116524501D01*
X117917516Y-116530908D01*
X117890376Y-116541031D01*
X117846890Y-116548848D01*
X114504011Y-116544630D01*
X114498968Y-116544374D01*
X114400208Y-116544498D01*
X114399899Y-116544498D01*
X114352523Y-116544439D01*
X114347548Y-116544565D01*
X110953109Y-116548848D01*
X110909621Y-116541030D01*
X110882488Y-116530910D01*
X110882484Y-116530909D01*
X110882483Y-116530909D01*
X110822873Y-116524500D01*
X110822863Y-116524500D01*
X110052129Y-116524500D01*
X110052123Y-116524501D01*
X109992516Y-116530908D01*
X109857671Y-116581202D01*
X109857664Y-116581206D01*
X109742455Y-116667452D01*
X109742452Y-116667455D01*
X109656206Y-116782664D01*
X109656202Y-116782671D01*
X109605908Y-116917517D01*
X109599501Y-116977116D01*
X109599501Y-116977123D01*
X109599500Y-116977135D01*
X109599500Y-117021290D01*
X109586897Y-117075758D01*
X109541153Y-117169312D01*
X109541149Y-117169322D01*
X109522006Y-117243644D01*
X109486222Y-117303655D01*
X109423674Y-117334792D01*
X109354221Y-117327170D01*
X109299915Y-117283210D01*
X109285645Y-117255780D01*
X109281223Y-117243840D01*
X109220264Y-117079247D01*
X109220261Y-117079242D01*
X109220259Y-117079237D01*
X109219264Y-117077641D01*
X109218967Y-117076603D01*
X109217493Y-117073598D01*
X109218031Y-117073333D01*
X109200499Y-117012055D01*
X109200499Y-116977129D01*
X109200498Y-116977123D01*
X109200497Y-116977116D01*
X109194091Y-116917517D01*
X109143796Y-116782669D01*
X109143795Y-116782668D01*
X109143793Y-116782664D01*
X109057547Y-116667455D01*
X109057544Y-116667452D01*
X108942335Y-116581206D01*
X108942328Y-116581202D01*
X108807486Y-116530910D01*
X108807485Y-116530909D01*
X108807483Y-116530909D01*
X108747873Y-116524500D01*
X108747863Y-116524500D01*
X107977129Y-116524500D01*
X107977123Y-116524501D01*
X107917518Y-116530908D01*
X107898547Y-116537984D01*
X107888632Y-116541682D01*
X107845300Y-116549500D01*
X107474500Y-116549500D01*
X107407461Y-116529815D01*
X107361706Y-116477011D01*
X107350500Y-116425500D01*
X107350500Y-111527239D01*
X107350659Y-111520959D01*
X107351722Y-111500005D01*
X111895057Y-111500005D01*
X111914807Y-111813942D01*
X111914808Y-111813949D01*
X111973755Y-112122958D01*
X112070963Y-112422132D01*
X112070965Y-112422137D01*
X112204900Y-112706761D01*
X112204903Y-112706767D01*
X112373452Y-112972359D01*
X112432273Y-113043461D01*
X113436829Y-112038906D01*
X113443038Y-112052502D01*
X113564894Y-112223624D01*
X113716932Y-112368592D01*
X113862268Y-112461994D01*
X112855926Y-113468335D01*
X112855927Y-113468337D01*
X113057772Y-113614985D01*
X113057790Y-113614996D01*
X113333447Y-113766540D01*
X113333455Y-113766544D01*
X113625926Y-113882340D01*
X113930620Y-113960573D01*
X113930629Y-113960575D01*
X114242701Y-113999999D01*
X114242715Y-114000000D01*
X114557285Y-114000000D01*
X114557298Y-113999999D01*
X114869370Y-113960575D01*
X114869379Y-113960573D01*
X115174073Y-113882340D01*
X115466544Y-113766544D01*
X115466552Y-113766540D01*
X115742209Y-113614996D01*
X115742219Y-113614990D01*
X115944071Y-113468335D01*
X115944072Y-113468335D01*
X114936649Y-112460913D01*
X114997410Y-112429589D01*
X115162540Y-112299729D01*
X115300110Y-112140965D01*
X115360547Y-112036283D01*
X116367725Y-113043462D01*
X116367726Y-113043462D01*
X116426534Y-112972377D01*
X116595100Y-112706760D01*
X116729034Y-112422137D01*
X116729036Y-112422132D01*
X116826244Y-112122958D01*
X116885191Y-111813949D01*
X116885192Y-111813942D01*
X116904943Y-111500005D01*
X121895057Y-111500005D01*
X121914807Y-111813942D01*
X121914808Y-111813949D01*
X121973755Y-112122958D01*
X122070963Y-112422132D01*
X122070965Y-112422137D01*
X122204900Y-112706761D01*
X122204903Y-112706767D01*
X122373452Y-112972359D01*
X122432273Y-113043461D01*
X123436829Y-112038906D01*
X123443038Y-112052502D01*
X123564894Y-112223624D01*
X123716932Y-112368592D01*
X123862268Y-112461994D01*
X122855926Y-113468335D01*
X122855927Y-113468337D01*
X123057772Y-113614985D01*
X123057790Y-113614996D01*
X123333447Y-113766540D01*
X123333455Y-113766544D01*
X123625926Y-113882340D01*
X123930620Y-113960573D01*
X123930629Y-113960575D01*
X124242701Y-113999999D01*
X124242715Y-114000000D01*
X124557285Y-114000000D01*
X124557298Y-113999999D01*
X124869370Y-113960575D01*
X124869379Y-113960573D01*
X125174073Y-113882340D01*
X125466544Y-113766544D01*
X125466552Y-113766540D01*
X125742209Y-113614996D01*
X125742219Y-113614990D01*
X125944071Y-113468335D01*
X125944072Y-113468335D01*
X124936649Y-112460913D01*
X124997410Y-112429589D01*
X125162540Y-112299729D01*
X125300110Y-112140965D01*
X125360547Y-112036283D01*
X126367726Y-113043462D01*
X126426534Y-112972377D01*
X126595100Y-112706760D01*
X126729034Y-112422137D01*
X126729036Y-112422132D01*
X126826244Y-112122958D01*
X126885191Y-111813949D01*
X126885192Y-111813942D01*
X126904943Y-111500005D01*
X126904943Y-111499994D01*
X126885192Y-111186057D01*
X126885191Y-111186050D01*
X126826244Y-110877041D01*
X126729036Y-110577867D01*
X126729034Y-110577862D01*
X126595099Y-110293238D01*
X126595096Y-110293232D01*
X126426544Y-110027635D01*
X126367724Y-109956536D01*
X125363170Y-110961091D01*
X125356962Y-110947498D01*
X125235106Y-110776376D01*
X125083068Y-110631408D01*
X124937730Y-110538005D01*
X125944072Y-109531663D01*
X125944071Y-109531662D01*
X125742227Y-109385014D01*
X125742209Y-109385003D01*
X125466552Y-109233459D01*
X125466544Y-109233455D01*
X125174073Y-109117659D01*
X124869379Y-109039426D01*
X124869370Y-109039424D01*
X124557298Y-109000000D01*
X124242701Y-109000000D01*
X123930629Y-109039424D01*
X123930620Y-109039426D01*
X123625926Y-109117659D01*
X123333455Y-109233455D01*
X123333447Y-109233459D01*
X123057787Y-109385004D01*
X123057782Y-109385007D01*
X122855927Y-109531662D01*
X122855927Y-109531663D01*
X123863350Y-110539086D01*
X123802590Y-110570411D01*
X123637460Y-110700271D01*
X123499890Y-110859035D01*
X123439452Y-110963715D01*
X122432273Y-109956536D01*
X122373460Y-110027628D01*
X122373457Y-110027632D01*
X122204903Y-110293232D01*
X122204900Y-110293238D01*
X122070965Y-110577862D01*
X122070963Y-110577867D01*
X121973755Y-110877041D01*
X121914808Y-111186050D01*
X121914807Y-111186057D01*
X121895057Y-111499994D01*
X121895057Y-111500005D01*
X116904943Y-111500005D01*
X116904943Y-111499994D01*
X116885192Y-111186057D01*
X116885191Y-111186050D01*
X116826244Y-110877041D01*
X116729036Y-110577867D01*
X116729034Y-110577862D01*
X116595099Y-110293238D01*
X116595096Y-110293232D01*
X116426544Y-110027635D01*
X116367724Y-109956536D01*
X115363170Y-110961091D01*
X115356962Y-110947498D01*
X115235106Y-110776376D01*
X115083068Y-110631408D01*
X114937730Y-110538005D01*
X115944072Y-109531663D01*
X115944071Y-109531662D01*
X115742227Y-109385014D01*
X115742209Y-109385003D01*
X115466552Y-109233459D01*
X115466544Y-109233455D01*
X115174073Y-109117659D01*
X114869379Y-109039426D01*
X114869370Y-109039424D01*
X114557298Y-109000000D01*
X114242701Y-109000000D01*
X113930629Y-109039424D01*
X113930620Y-109039426D01*
X113625926Y-109117659D01*
X113333455Y-109233455D01*
X113333447Y-109233459D01*
X113057787Y-109385004D01*
X113057782Y-109385007D01*
X112855927Y-109531662D01*
X112855927Y-109531663D01*
X113863350Y-110539086D01*
X113802590Y-110570411D01*
X113637460Y-110700271D01*
X113499890Y-110859035D01*
X113439452Y-110963715D01*
X112432273Y-109956536D01*
X112373460Y-110027628D01*
X112373457Y-110027632D01*
X112204903Y-110293232D01*
X112204900Y-110293238D01*
X112070965Y-110577862D01*
X112070963Y-110577867D01*
X111973755Y-110877041D01*
X111914808Y-111186050D01*
X111914807Y-111186057D01*
X111895057Y-111499994D01*
X111895057Y-111500005D01*
X107351722Y-111500005D01*
X107354176Y-111451610D01*
X107351930Y-111436948D01*
X107350500Y-111418172D01*
X107350500Y-106574500D01*
X107370185Y-106507461D01*
X107422989Y-106461706D01*
X107474500Y-106450500D01*
X108429320Y-106450500D01*
X108429340Y-106450499D01*
X108747871Y-106450499D01*
X108747872Y-106450499D01*
X108807483Y-106444091D01*
X108942331Y-106393796D01*
X109057546Y-106307546D01*
X109143796Y-106192331D01*
X109194091Y-106057483D01*
X109200856Y-105994568D01*
X109201355Y-105994621D01*
X109212992Y-105949925D01*
X109270930Y-105831816D01*
X109280217Y-105795945D01*
X109316075Y-105735982D01*
X109378661Y-105704922D01*
X109448105Y-105712630D01*
X109502357Y-105756658D01*
X109516512Y-105783887D01*
X109567501Y-105921292D01*
X109581156Y-105943169D01*
X109599254Y-105995572D01*
X109605908Y-106057483D01*
X109656202Y-106192328D01*
X109656206Y-106192335D01*
X109742452Y-106307544D01*
X109742455Y-106307547D01*
X109857664Y-106393793D01*
X109857671Y-106393797D01*
X109902618Y-106410561D01*
X109992517Y-106444091D01*
X110052127Y-106450500D01*
X110322030Y-106450499D01*
X110323320Y-106450564D01*
X110328939Y-106450560D01*
X110328942Y-106450561D01*
X110426696Y-106450499D01*
X110797872Y-106450499D01*
X110797879Y-106450498D01*
X110798979Y-106450439D01*
X110805544Y-106450260D01*
X114399635Y-106447999D01*
X117994438Y-106450260D01*
X118000998Y-106450439D01*
X118002103Y-106450497D01*
X118002127Y-106450500D01*
X118374112Y-106450499D01*
X118422608Y-106450530D01*
X118422613Y-106450529D01*
X118425088Y-106450531D01*
X118426369Y-106450499D01*
X118747871Y-106450499D01*
X118747872Y-106450499D01*
X118807483Y-106444091D01*
X118942331Y-106393796D01*
X119057546Y-106307546D01*
X119143796Y-106192331D01*
X119194091Y-106057483D01*
X119200500Y-105997873D01*
X119200499Y-105997869D01*
X119200501Y-105997856D01*
X119200503Y-105997846D01*
X119200856Y-105994568D01*
X119201344Y-105994620D01*
X119213030Y-105949801D01*
X119270721Y-105832379D01*
X119280214Y-105795809D01*
X119316111Y-105735867D01*
X119378717Y-105704847D01*
X119448155Y-105712599D01*
X119502380Y-105756662D01*
X119516490Y-105783826D01*
X119567501Y-105921292D01*
X119581156Y-105943169D01*
X119599254Y-105995572D01*
X119605908Y-106057483D01*
X119656202Y-106192328D01*
X119656206Y-106192335D01*
X119742452Y-106307544D01*
X119742455Y-106307547D01*
X119857664Y-106393793D01*
X119857671Y-106393797D01*
X119902618Y-106410561D01*
X119992517Y-106444091D01*
X120052127Y-106450500D01*
X120322030Y-106450499D01*
X120323320Y-106450564D01*
X120328939Y-106450560D01*
X120328942Y-106450561D01*
X120426696Y-106450499D01*
X120797872Y-106450499D01*
X120797879Y-106450498D01*
X120798979Y-106450439D01*
X120805544Y-106450260D01*
X124399635Y-106447999D01*
X127994438Y-106450260D01*
X128000998Y-106450439D01*
X128002103Y-106450497D01*
X128002127Y-106450500D01*
X128374112Y-106450499D01*
X128422608Y-106450530D01*
X128422613Y-106450529D01*
X128425088Y-106450531D01*
X128426369Y-106450499D01*
X128747871Y-106450499D01*
X128747872Y-106450499D01*
X128807483Y-106444091D01*
X128942331Y-106393796D01*
X129057546Y-106307546D01*
X129143796Y-106192331D01*
X129194091Y-106057483D01*
X129200500Y-105997873D01*
X129200499Y-105997869D01*
X129200501Y-105997856D01*
X129200503Y-105997846D01*
X129200856Y-105994568D01*
X129201344Y-105994620D01*
X129213030Y-105949801D01*
X129270721Y-105832379D01*
X129280228Y-105795757D01*
X129316125Y-105735814D01*
X129378732Y-105704794D01*
X129448170Y-105712547D01*
G37*
G04 #@! TD.AperFunction*
G04 #@! TA.AperFunction,Conductor*
G36*
X136942539Y-100020185D02*
G01*
X136988294Y-100072989D01*
X136999500Y-100124500D01*
X136999500Y-104450266D01*
X136979815Y-104517305D01*
X136927011Y-104563060D01*
X136857853Y-104573004D01*
X136806610Y-104553369D01*
X136747739Y-104514033D01*
X136747735Y-104514032D01*
X136674677Y-104499500D01*
X136674674Y-104499500D01*
X131895326Y-104499500D01*
X131895324Y-104499500D01*
X131822261Y-104514033D01*
X131822260Y-104514034D01*
X131800454Y-104528603D01*
X131733778Y-104549480D01*
X131731566Y-104549500D01*
X130052130Y-104549500D01*
X130052123Y-104549501D01*
X129992516Y-104555908D01*
X129857671Y-104606202D01*
X129857664Y-104606206D01*
X129742455Y-104692452D01*
X129742452Y-104692455D01*
X129656206Y-104807664D01*
X129656202Y-104807671D01*
X129605908Y-104942517D01*
X129599145Y-105005428D01*
X129598653Y-105005375D01*
X129587007Y-105050069D01*
X129529070Y-105168183D01*
X129529069Y-105168184D01*
X129519755Y-105204159D01*
X129483895Y-105264124D01*
X129421308Y-105295182D01*
X129351865Y-105287473D01*
X129297613Y-105243444D01*
X129283406Y-105216070D01*
X129233030Y-105079791D01*
X129233030Y-105079790D01*
X129233029Y-105079787D01*
X129218783Y-105056899D01*
X129200767Y-105004627D01*
X129200499Y-105002133D01*
X129200499Y-105002128D01*
X129194091Y-104942517D01*
X129169907Y-104877677D01*
X129143797Y-104807671D01*
X129143793Y-104807664D01*
X129057547Y-104692455D01*
X129057544Y-104692452D01*
X128942335Y-104606206D01*
X128942328Y-104606202D01*
X128807482Y-104555908D01*
X128807483Y-104555908D01*
X128747883Y-104549501D01*
X128747881Y-104549500D01*
X128747873Y-104549500D01*
X128747865Y-104549500D01*
X128376052Y-104549500D01*
X124503443Y-104547064D01*
X124500897Y-104546935D01*
X124399672Y-104546998D01*
X124399522Y-104546998D01*
X124350658Y-104546968D01*
X124348166Y-104547031D01*
X120424673Y-104549500D01*
X120052130Y-104549500D01*
X120052123Y-104549501D01*
X119992516Y-104555908D01*
X119857671Y-104606202D01*
X119857664Y-104606206D01*
X119742455Y-104692452D01*
X119742452Y-104692455D01*
X119656206Y-104807664D01*
X119656202Y-104807671D01*
X119605908Y-104942517D01*
X119599145Y-105005428D01*
X119598643Y-105005374D01*
X119587044Y-105049942D01*
X119528860Y-105168748D01*
X119528859Y-105168750D01*
X119519750Y-105204022D01*
X119483927Y-105264009D01*
X119421359Y-105295106D01*
X119351911Y-105287440D01*
X119297633Y-105243444D01*
X119283382Y-105216007D01*
X119282635Y-105213987D01*
X119233029Y-105079787D01*
X119218783Y-105056899D01*
X119200767Y-105004627D01*
X119200499Y-105002133D01*
X119200499Y-105002128D01*
X119194091Y-104942517D01*
X119169907Y-104877677D01*
X119143797Y-104807671D01*
X119143793Y-104807664D01*
X119057547Y-104692455D01*
X119057544Y-104692452D01*
X118942335Y-104606206D01*
X118942328Y-104606202D01*
X118807482Y-104555908D01*
X118807483Y-104555908D01*
X118747883Y-104549501D01*
X118747881Y-104549500D01*
X118747873Y-104549500D01*
X118747865Y-104549500D01*
X118376052Y-104549500D01*
X114503443Y-104547064D01*
X114500897Y-104546935D01*
X114399672Y-104546998D01*
X114399522Y-104546998D01*
X114350658Y-104546968D01*
X114348166Y-104547031D01*
X110424673Y-104549500D01*
X110052130Y-104549500D01*
X110052123Y-104549501D01*
X109992516Y-104555908D01*
X109857671Y-104606202D01*
X109857664Y-104606206D01*
X109742455Y-104692452D01*
X109742452Y-104692455D01*
X109656206Y-104807664D01*
X109656202Y-104807671D01*
X109605908Y-104942517D01*
X109599145Y-105005428D01*
X109598643Y-105005374D01*
X109587044Y-105049942D01*
X109528861Y-105168746D01*
X109519765Y-105203969D01*
X109483943Y-105263956D01*
X109421375Y-105295055D01*
X109351928Y-105287389D01*
X109297648Y-105243395D01*
X109283423Y-105216029D01*
X109232964Y-105079787D01*
X109232764Y-105079247D01*
X109218813Y-105056864D01*
X109200757Y-105004530D01*
X109194091Y-104942516D01*
X109143797Y-104807671D01*
X109143793Y-104807664D01*
X109057547Y-104692455D01*
X109057544Y-104692452D01*
X108942335Y-104606206D01*
X108942328Y-104606202D01*
X108807482Y-104555908D01*
X108807483Y-104555908D01*
X108747883Y-104549501D01*
X108747881Y-104549500D01*
X108747873Y-104549500D01*
X108747865Y-104549500D01*
X106427239Y-104549500D01*
X106420960Y-104549341D01*
X106375982Y-104547060D01*
X106351611Y-104545824D01*
X106351602Y-104545824D01*
X106282987Y-104556335D01*
X106276760Y-104557129D01*
X106207683Y-104564154D01*
X106207673Y-104564156D01*
X106193520Y-104568596D01*
X106175196Y-104572848D01*
X106160529Y-104575096D01*
X106160522Y-104575097D01*
X106095408Y-104599212D01*
X106089469Y-104601242D01*
X106023236Y-104622024D01*
X106023233Y-104622025D01*
X106010260Y-104629226D01*
X105993157Y-104637084D01*
X105979249Y-104642235D01*
X105979246Y-104642236D01*
X105920321Y-104678962D01*
X105914915Y-104682144D01*
X105854209Y-104715840D01*
X105854207Y-104715841D01*
X105842951Y-104725504D01*
X105827788Y-104736639D01*
X105815191Y-104744491D01*
X105764863Y-104792332D01*
X105760203Y-104796542D01*
X105707534Y-104841756D01*
X105707533Y-104841758D01*
X105698451Y-104853490D01*
X105685837Y-104867451D01*
X105675081Y-104877675D01*
X105635402Y-104934682D01*
X105631687Y-104939741D01*
X105589202Y-104994628D01*
X105582671Y-105007943D01*
X105573121Y-105024165D01*
X105564647Y-105036342D01*
X105537252Y-105100177D01*
X105534641Y-105105859D01*
X105504071Y-105168180D01*
X105504069Y-105168185D01*
X105500351Y-105182543D01*
X105494268Y-105200339D01*
X105488412Y-105213987D01*
X105474434Y-105282003D01*
X105473015Y-105288120D01*
X105455615Y-105355323D01*
X105454863Y-105370148D01*
X105452484Y-105388818D01*
X105449500Y-105403338D01*
X105449500Y-105472759D01*
X105449341Y-105479039D01*
X105445824Y-105548389D01*
X105445824Y-105548390D01*
X105448070Y-105563050D01*
X105449500Y-105581827D01*
X105449500Y-110425500D01*
X105429815Y-110492539D01*
X105377011Y-110538294D01*
X105325500Y-110549500D01*
X105268434Y-110549500D01*
X105201395Y-110529815D01*
X105199574Y-110528623D01*
X105177740Y-110514034D01*
X105177739Y-110514033D01*
X105177738Y-110514033D01*
X105104676Y-110499500D01*
X105104674Y-110499500D01*
X100325326Y-110499500D01*
X100325323Y-110499500D01*
X100252264Y-110514032D01*
X100252260Y-110514033D01*
X100193390Y-110553369D01*
X100126712Y-110574246D01*
X100059332Y-110555761D01*
X100012642Y-110503781D01*
X100000500Y-110450266D01*
X100000500Y-100124500D01*
X100020185Y-100057461D01*
X100072989Y-100011706D01*
X100124500Y-100000500D01*
X136875500Y-100000500D01*
X136942539Y-100020185D01*
G37*
G04 #@! TD.AperFunction*
G04 #@! TD*
M02*
