M48
; DRILL file {KiCad 7.0.11+dfsg-1build4} date Wed Sep 30 09:07:18 2026
; FORMAT={-:-/ absolute / metric / decimal}
; #@! TF.CreationDate,2026-09-30T09:07:18+02:00
; #@! TF.GenerationSoftware,Kicad,Pcbnew,7.0.11+dfsg-1build4
; #@! TF.FileFunction,Plated,1,2,PTH
FMAT,2
METRIC
; #@! TA.AperFunction,Plated,PTH,ViaDrill
T1C0.400
; #@! TA.AperFunction,Plated,PTH,ComponentDrill
T2C0.400
; #@! TA.AperFunction,Plated,PTH,ComponentDrill
T3C2.200
%
G90
G05
T1
X101.5Y-101.5
X101.5Y-104.5
X101.5Y-113.5
X101.5Y-119.5
X103.636Y-109.7
X103.636Y-113.3
X104.5Y-101.5
X104.5Y-104.5
X104.5Y-119.5
X107.381Y-119.3
X107.387Y-103.7
X107.5Y-101.5
X108.2Y-107.75
X108.2Y-110.75
X108.2Y-113.75
X110.5Y-101.5
X110.5Y-110.5
X111.418Y-103.699
X111.43Y-119.299
X113.5Y-102.072
X113.5Y-120.895
X115.3Y-102.072
X115.3Y-120.895
X117.37Y-119.299
X117.382Y-103.699
X119.5Y-101.5
X119.5Y-119.5
X121.418Y-103.699
X121.43Y-119.299
X123.5Y-102.072
X123.5Y-120.895
X125.3Y-102.072
X125.3Y-120.895
X127.37Y-119.299
X127.382Y-103.699
X128.5Y-101.5
X128.5Y-110.5
X131.39Y-103.7
X131.39Y-107.3
X131.399Y-115.7
X131.399Y-119.3
X131.5Y-101.5
X131.5Y-110.5
X131.5Y-113.5
X133.32Y-103.7
X133.32Y-107.3
X133.323Y-115.7
X133.323Y-119.3
T2
X112.75Y-111.5
X113.233Y-110.333
X113.233Y-112.667
X114.4Y-109.85
X114.4Y-113.15
X115.567Y-110.333
X115.567Y-112.667
X116.05Y-111.5
X122.75Y-111.5
X123.233Y-110.333
X123.233Y-112.667
X124.4Y-109.85
X124.4Y-113.15
X125.567Y-110.333
X125.567Y-112.667
X126.05Y-111.5
T3
X114.4Y-111.5
X124.4Y-111.5
M30
