M48
; DRILL file {KiCad 7.0.11+dfsg-1build4} date Wed Sep 30 09:07:19 2026
; FORMAT={-:-/ absolute / metric / decimal}
; #@! TF.CreationDate,2026-09-30T09:07:19+02:00
; #@! TF.GenerationSoftware,Kicad,Pcbnew,7.0.11+dfsg-1build4
; #@! TF.FileFunction,Plated,1,2,PTH
FMAT,2
METRIC
; #@! TA.AperFunction,Plated,PTH,ViaDrill
T1C0.400
; #@! TA.AperFunction,Plated,PTH,ComponentDrill
T2C0.400
; #@! TA.AperFunction,Plated,PTH,ComponentDrill
T3C0.890
; #@! TA.AperFunction,Plated,PTH,ComponentDrill
T4C2.010
; #@! TA.AperFunction,Plated,PTH,ComponentDrill
T5C2.200
%
G90
G05
T1
X101.5Y-101.5
X101.5Y-104.5
X101.5Y-107.5
X101.5Y-110.5
X101.5Y-113.5
X101.5Y-116.5
X101.5Y-119.5
X101.5Y-122.5
X101.5Y-125.5
X101.5Y-128.5
X101.5Y-131.5
X104.5Y-101.5
X104.5Y-104.5
X104.5Y-107.5
X104.5Y-113.5
X104.5Y-116.5
X104.5Y-119.5
X104.5Y-125.5
X104.5Y-128.5
X104.5Y-131.5
X107.5Y-101.5
X107.5Y-104.5
X107.5Y-107.5
X107.5Y-113.5
X107.5Y-116.5
X107.5Y-119.5
X107.5Y-125.5
X107.5Y-128.5
X107.5Y-131.5
X110.5Y-101.5
X110.5Y-104.5
X110.5Y-107.5
X110.5Y-113.5
X110.5Y-116.5
X110.5Y-119.5
X110.5Y-125.5
X110.5Y-128.5
X110.5Y-131.5
X113.375Y-114.7
X113.5Y-101.5
X113.5Y-104.5
X113.5Y-128.5
X113.5Y-131.5
X113.6Y-108.85
X113.6Y-110.55
X113.6Y-112.25
X113.6Y-120.75
X113.6Y-122.45
X113.6Y-124.15
X116.081Y-126.8
X116.087Y-106.2
X116.5Y-101.5
X116.5Y-104.5
X116.5Y-128.5
X116.5Y-131.5
X117.2Y-110.55
X117.2Y-112.25
X117.2Y-113.95
X117.2Y-115.65
X117.2Y-117.35
X117.2Y-119.05
X117.2Y-120.75
X117.2Y-122.45
X119.5Y-101.5
X119.5Y-104.5
X119.5Y-113.5
X119.5Y-116.5
X119.5Y-119.5
X119.5Y-128.5
X119.5Y-131.5
X119.818Y-106.199
X119.83Y-126.799
X121.9Y-104.572
X121.9Y-128.395
X122.5Y-101.5
X122.5Y-113.5
X122.5Y-119.5
X122.5Y-131.5
X123.7Y-104.572
X123.7Y-128.395
X125.5Y-101.5
X125.5Y-104.5
X125.5Y-113.5
X125.5Y-116.5
X125.5Y-119.5
X125.5Y-128.5
X125.5Y-131.5
X125.77Y-126.799
X125.782Y-106.199
X128.5Y-101.5
X128.5Y-104.5
X128.5Y-113.5
X128.5Y-119.5
X128.5Y-128.5
X128.5Y-131.5
X129.818Y-106.199
X129.83Y-126.799
X131.5Y-101.5
X131.5Y-113.5
X131.5Y-119.5
X131.5Y-131.5
X131.9Y-104.572
X131.9Y-128.395
X133.7Y-104.572
X133.7Y-128.395
X134.5Y-101.5
X134.5Y-113.5
X134.5Y-119.5
X134.5Y-131.5
X135.77Y-126.799
X135.782Y-106.199
X137.5Y-101.5
X137.5Y-104.5
X137.5Y-110.5
X137.5Y-113.5
X137.5Y-116.5
X137.5Y-119.5
X137.5Y-128.5
X137.5Y-131.5
X139.819Y-106.2
X139.819Y-109.8
X139.828Y-123.2
X139.828Y-126.8
X140.5Y-101.5
X140.5Y-104.5
X140.5Y-113.5
X140.5Y-116.5
X140.5Y-119.5
X140.5Y-128.5
X140.5Y-131.5
X141.806Y-109.8
X141.809Y-126.8
X143.5Y-101.5
X143.5Y-110.5
X143.5Y-113.5
X143.5Y-116.5
X143.5Y-119.5
X143.5Y-128.5
X143.5Y-131.5
X146.5Y-107.5
X146.5Y-110.5
X146.5Y-116.5
X146.5Y-122.5
X146.5Y-125.5
X149.5Y-107.5
X149.5Y-110.5
X149.5Y-116.5
X149.5Y-122.5
X149.5Y-125.5
X152.5Y-101.5
X152.5Y-104.5
X152.5Y-107.5
X152.5Y-110.5
X152.5Y-113.5
X152.5Y-116.5
X152.5Y-119.5
X152.5Y-122.5
X152.5Y-125.5
X152.5Y-128.5
X152.5Y-131.5
T2
X121.15Y-116.5
X121.633Y-115.333
X121.633Y-117.667
X122.8Y-114.85
X122.8Y-118.15
X123.967Y-115.333
X123.967Y-117.667
X124.45Y-116.5
X131.15Y-116.5
X131.633Y-115.333
X131.633Y-117.667
X132.8Y-114.85
X132.8Y-118.15
X133.967Y-115.333
X133.967Y-117.667
X134.45Y-116.5
T3
X112.7Y-116.5
X112.7Y-119.04
X142.8Y-105.46
X142.8Y-108.0
X142.8Y-122.46
X142.8Y-125.0
T4
X107.62Y-111.42
X107.62Y-121.58
X147.88Y-102.92
X147.88Y-113.08
X147.88Y-119.92
X147.88Y-130.08
T5
X122.8Y-116.5
X132.8Y-116.5
M30
