G04 #@! TF.GenerationSoftware,KiCad,Pcbnew,7.0.11+dfsg-1build4*
G04 #@! TF.CreationDate,2026-09-30T09:07:19+02:00*
G04 #@! TF.ProjectId,diplexor_2m70cm_BNC,6469706c-6578-46f7-925f-326d3730636d,rev?*
G04 #@! TF.SameCoordinates,Original*
G04 #@! TF.FileFunction,Legend,Top*
G04 #@! TF.FilePolarity,Positive*
%FSLAX46Y46*%
G04 Gerber Fmt 4.6, Leading zero omitted, Abs format (unit mm)*
G04 Created by KiCad (PCBNEW 7.0.11+dfsg-1build4) date 2026-09-30 09:07:19*
%MOMM*%
%LPD*%
G01*
G04 APERTURE LIST*
G04 Aperture macros list*
%AMRoundRect*
0 Rectangle with rounded corners*
0 $1 Rounding radius*
0 $2 $3 $4 $5 $6 $7 $8 $9 X,Y pos of 4 corners*
0 Add a 4 corners polygon primitive as box body*
4,1,4,$2,$3,$4,$5,$6,$7,$8,$9,$2,$3,0*
0 Add four circle primitives for the rounded corners*
1,1,$1+$1,$2,$3*
1,1,$1+$1,$4,$5*
1,1,$1+$1,$6,$7*
1,1,$1+$1,$8,$9*
0 Add four rect primitives between the rounded corners*
20,1,$1+$1,$2,$3,$4,$5,0*
20,1,$1+$1,$4,$5,$6,$7,0*
20,1,$1+$1,$6,$7,$8,$9,0*
20,1,$1+$1,$8,$9,$2,$3,0*%
G04 Aperture macros list end*
%ADD10C,0.150000*%
%ADD11C,0.120000*%
%ADD12RoundRect,0.250000X0.475000X-0.337500X0.475000X0.337500X-0.475000X0.337500X-0.475000X-0.337500X0*%
%ADD13RoundRect,0.250000X-0.337500X-0.475000X0.337500X-0.475000X0.337500X0.475000X-0.337500X0.475000X0*%
%ADD14RoundRect,0.250000X-0.325000X-0.450000X0.325000X-0.450000X0.325000X0.450000X-0.325000X0.450000X0*%
%ADD15RoundRect,0.250000X-0.450000X0.325000X-0.450000X-0.325000X0.450000X-0.325000X0.450000X0.325000X0*%
%ADD16C,0.700000*%
%ADD17C,4.400000*%
%ADD18O,2.500000X1.600000*%
%ADD19O,7.000000X3.500000*%
G04 APERTURE END LIST*
D10*
X126942857Y-110194271D02*
X126985714Y-110151414D01*
X126985714Y-110151414D02*
X127071429Y-110108557D01*
X127071429Y-110108557D02*
X127285714Y-110108557D01*
X127285714Y-110108557D02*
X127371429Y-110151414D01*
X127371429Y-110151414D02*
X127414286Y-110194271D01*
X127414286Y-110194271D02*
X127457143Y-110279985D01*
X127457143Y-110279985D02*
X127457143Y-110365700D01*
X127457143Y-110365700D02*
X127414286Y-110494271D01*
X127414286Y-110494271D02*
X126900000Y-111008557D01*
X126900000Y-111008557D02*
X127457143Y-111008557D01*
X127842857Y-111008557D02*
X127842857Y-110408557D01*
X127842857Y-110494271D02*
X127885714Y-110451414D01*
X127885714Y-110451414D02*
X127971429Y-110408557D01*
X127971429Y-110408557D02*
X128100000Y-110408557D01*
X128100000Y-110408557D02*
X128185714Y-110451414D01*
X128185714Y-110451414D02*
X128228572Y-110537128D01*
X128228572Y-110537128D02*
X128228572Y-111008557D01*
X128228572Y-110537128D02*
X128271429Y-110451414D01*
X128271429Y-110451414D02*
X128357143Y-110408557D01*
X128357143Y-110408557D02*
X128485714Y-110408557D01*
X128485714Y-110408557D02*
X128571429Y-110451414D01*
X128571429Y-110451414D02*
X128614286Y-110537128D01*
X128614286Y-110537128D02*
X128614286Y-111008557D01*
X126657142Y-116328961D02*
X126847618Y-116862295D01*
X126847618Y-116862295D02*
X127038095Y-116328961D01*
X127761904Y-116862295D02*
X127304761Y-116862295D01*
X127533333Y-116862295D02*
X127533333Y-116062295D01*
X127533333Y-116062295D02*
X127457142Y-116176580D01*
X127457142Y-116176580D02*
X127380952Y-116252771D01*
X127380952Y-116252771D02*
X127304761Y-116290866D01*
X128104762Y-116786104D02*
X128142857Y-116824200D01*
X128142857Y-116824200D02*
X128104762Y-116862295D01*
X128104762Y-116862295D02*
X128066666Y-116824200D01*
X128066666Y-116824200D02*
X128104762Y-116786104D01*
X128104762Y-116786104D02*
X128104762Y-116862295D01*
X128904761Y-116862295D02*
X128447618Y-116862295D01*
X128676190Y-116862295D02*
X128676190Y-116062295D01*
X128676190Y-116062295D02*
X128599999Y-116176580D01*
X128599999Y-116176580D02*
X128523809Y-116252771D01*
X128523809Y-116252771D02*
X128447618Y-116290866D01*
X126085714Y-121108557D02*
X126685714Y-121108557D01*
X126685714Y-121108557D02*
X126300000Y-122008557D01*
X127200000Y-121108557D02*
X127285714Y-121108557D01*
X127285714Y-121108557D02*
X127371428Y-121151414D01*
X127371428Y-121151414D02*
X127414286Y-121194271D01*
X127414286Y-121194271D02*
X127457143Y-121279985D01*
X127457143Y-121279985D02*
X127500000Y-121451414D01*
X127500000Y-121451414D02*
X127500000Y-121665700D01*
X127500000Y-121665700D02*
X127457143Y-121837128D01*
X127457143Y-121837128D02*
X127414286Y-121922842D01*
X127414286Y-121922842D02*
X127371428Y-121965700D01*
X127371428Y-121965700D02*
X127285714Y-122008557D01*
X127285714Y-122008557D02*
X127200000Y-122008557D01*
X127200000Y-122008557D02*
X127114286Y-121965700D01*
X127114286Y-121965700D02*
X127071428Y-121922842D01*
X127071428Y-121922842D02*
X127028571Y-121837128D01*
X127028571Y-121837128D02*
X126985714Y-121665700D01*
X126985714Y-121665700D02*
X126985714Y-121451414D01*
X126985714Y-121451414D02*
X127028571Y-121279985D01*
X127028571Y-121279985D02*
X127071428Y-121194271D01*
X127071428Y-121194271D02*
X127114286Y-121151414D01*
X127114286Y-121151414D02*
X127200000Y-121108557D01*
X128271429Y-121965700D02*
X128185714Y-122008557D01*
X128185714Y-122008557D02*
X128014286Y-122008557D01*
X128014286Y-122008557D02*
X127928571Y-121965700D01*
X127928571Y-121965700D02*
X127885714Y-121922842D01*
X127885714Y-121922842D02*
X127842857Y-121837128D01*
X127842857Y-121837128D02*
X127842857Y-121579985D01*
X127842857Y-121579985D02*
X127885714Y-121494271D01*
X127885714Y-121494271D02*
X127928571Y-121451414D01*
X127928571Y-121451414D02*
X128014286Y-121408557D01*
X128014286Y-121408557D02*
X128185714Y-121408557D01*
X128185714Y-121408557D02*
X128271429Y-121451414D01*
X128657143Y-122008557D02*
X128657143Y-121408557D01*
X128657143Y-121494271D02*
X128700000Y-121451414D01*
X128700000Y-121451414D02*
X128785715Y-121408557D01*
X128785715Y-121408557D02*
X128914286Y-121408557D01*
X128914286Y-121408557D02*
X129000000Y-121451414D01*
X129000000Y-121451414D02*
X129042858Y-121537128D01*
X129042858Y-121537128D02*
X129042858Y-122008557D01*
X129042858Y-121537128D02*
X129085715Y-121451414D01*
X129085715Y-121451414D02*
X129171429Y-121408557D01*
X129171429Y-121408557D02*
X129300000Y-121408557D01*
X129300000Y-121408557D02*
X129385715Y-121451414D01*
X129385715Y-121451414D02*
X129428572Y-121537128D01*
X129428572Y-121537128D02*
X129428572Y-122008557D01*
X121479580Y-107126666D02*
X121527200Y-107174285D01*
X121527200Y-107174285D02*
X121574819Y-107317142D01*
X121574819Y-107317142D02*
X121574819Y-107412380D01*
X121574819Y-107412380D02*
X121527200Y-107555237D01*
X121527200Y-107555237D02*
X121431961Y-107650475D01*
X121431961Y-107650475D02*
X121336723Y-107698094D01*
X121336723Y-107698094D02*
X121146247Y-107745713D01*
X121146247Y-107745713D02*
X121003390Y-107745713D01*
X121003390Y-107745713D02*
X120812914Y-107698094D01*
X120812914Y-107698094D02*
X120717676Y-107650475D01*
X120717676Y-107650475D02*
X120622438Y-107555237D01*
X120622438Y-107555237D02*
X120574819Y-107412380D01*
X120574819Y-107412380D02*
X120574819Y-107317142D01*
X120574819Y-107317142D02*
X120622438Y-107174285D01*
X120622438Y-107174285D02*
X120670057Y-107126666D01*
X121574819Y-106174285D02*
X121574819Y-106745713D01*
X121574819Y-106459999D02*
X120574819Y-106459999D01*
X120574819Y-106459999D02*
X120717676Y-106555237D01*
X120717676Y-106555237D02*
X120812914Y-106650475D01*
X120812914Y-106650475D02*
X120860533Y-106745713D01*
X137633333Y-123679580D02*
X137585714Y-123727200D01*
X137585714Y-123727200D02*
X137442857Y-123774819D01*
X137442857Y-123774819D02*
X137347619Y-123774819D01*
X137347619Y-123774819D02*
X137204762Y-123727200D01*
X137204762Y-123727200D02*
X137109524Y-123631961D01*
X137109524Y-123631961D02*
X137061905Y-123536723D01*
X137061905Y-123536723D02*
X137014286Y-123346247D01*
X137014286Y-123346247D02*
X137014286Y-123203390D01*
X137014286Y-123203390D02*
X137061905Y-123012914D01*
X137061905Y-123012914D02*
X137109524Y-122917676D01*
X137109524Y-122917676D02*
X137204762Y-122822438D01*
X137204762Y-122822438D02*
X137347619Y-122774819D01*
X137347619Y-122774819D02*
X137442857Y-122774819D01*
X137442857Y-122774819D02*
X137585714Y-122822438D01*
X137585714Y-122822438D02*
X137633333Y-122870057D01*
X138538095Y-122774819D02*
X138061905Y-122774819D01*
X138061905Y-122774819D02*
X138014286Y-123251009D01*
X138014286Y-123251009D02*
X138061905Y-123203390D01*
X138061905Y-123203390D02*
X138157143Y-123155771D01*
X138157143Y-123155771D02*
X138395238Y-123155771D01*
X138395238Y-123155771D02*
X138490476Y-123203390D01*
X138490476Y-123203390D02*
X138538095Y-123251009D01*
X138538095Y-123251009D02*
X138585714Y-123346247D01*
X138585714Y-123346247D02*
X138585714Y-123584342D01*
X138585714Y-123584342D02*
X138538095Y-123679580D01*
X138538095Y-123679580D02*
X138490476Y-123727200D01*
X138490476Y-123727200D02*
X138395238Y-123774819D01*
X138395238Y-123774819D02*
X138157143Y-123774819D01*
X138157143Y-123774819D02*
X138061905Y-123727200D01*
X138061905Y-123727200D02*
X138014286Y-123679580D01*
X117633333Y-123679580D02*
X117585714Y-123727200D01*
X117585714Y-123727200D02*
X117442857Y-123774819D01*
X117442857Y-123774819D02*
X117347619Y-123774819D01*
X117347619Y-123774819D02*
X117204762Y-123727200D01*
X117204762Y-123727200D02*
X117109524Y-123631961D01*
X117109524Y-123631961D02*
X117061905Y-123536723D01*
X117061905Y-123536723D02*
X117014286Y-123346247D01*
X117014286Y-123346247D02*
X117014286Y-123203390D01*
X117014286Y-123203390D02*
X117061905Y-123012914D01*
X117061905Y-123012914D02*
X117109524Y-122917676D01*
X117109524Y-122917676D02*
X117204762Y-122822438D01*
X117204762Y-122822438D02*
X117347619Y-122774819D01*
X117347619Y-122774819D02*
X117442857Y-122774819D01*
X117442857Y-122774819D02*
X117585714Y-122822438D01*
X117585714Y-122822438D02*
X117633333Y-122870057D01*
X117966667Y-122774819D02*
X118585714Y-122774819D01*
X118585714Y-122774819D02*
X118252381Y-123155771D01*
X118252381Y-123155771D02*
X118395238Y-123155771D01*
X118395238Y-123155771D02*
X118490476Y-123203390D01*
X118490476Y-123203390D02*
X118538095Y-123251009D01*
X118538095Y-123251009D02*
X118585714Y-123346247D01*
X118585714Y-123346247D02*
X118585714Y-123584342D01*
X118585714Y-123584342D02*
X118538095Y-123679580D01*
X118538095Y-123679580D02*
X118490476Y-123727200D01*
X118490476Y-123727200D02*
X118395238Y-123774819D01*
X118395238Y-123774819D02*
X118109524Y-123774819D01*
X118109524Y-123774819D02*
X118014286Y-123727200D01*
X118014286Y-123727200D02*
X117966667Y-123679580D01*
X127633333Y-106804819D02*
X127157143Y-106804819D01*
X127157143Y-106804819D02*
X127157143Y-105804819D01*
X127919048Y-105900057D02*
X127966667Y-105852438D01*
X127966667Y-105852438D02*
X128061905Y-105804819D01*
X128061905Y-105804819D02*
X128300000Y-105804819D01*
X128300000Y-105804819D02*
X128395238Y-105852438D01*
X128395238Y-105852438D02*
X128442857Y-105900057D01*
X128442857Y-105900057D02*
X128490476Y-105995295D01*
X128490476Y-105995295D02*
X128490476Y-106090533D01*
X128490476Y-106090533D02*
X128442857Y-106233390D01*
X128442857Y-106233390D02*
X127871429Y-106804819D01*
X127871429Y-106804819D02*
X128490476Y-106804819D01*
X124904819Y-126186666D02*
X124904819Y-126662856D01*
X124904819Y-126662856D02*
X123904819Y-126662856D01*
X124238152Y-125424761D02*
X124904819Y-125424761D01*
X123857200Y-125662856D02*
X124571485Y-125900951D01*
X124571485Y-125900951D02*
X124571485Y-125281904D01*
X127633333Y-123679580D02*
X127585714Y-123727200D01*
X127585714Y-123727200D02*
X127442857Y-123774819D01*
X127442857Y-123774819D02*
X127347619Y-123774819D01*
X127347619Y-123774819D02*
X127204762Y-123727200D01*
X127204762Y-123727200D02*
X127109524Y-123631961D01*
X127109524Y-123631961D02*
X127061905Y-123536723D01*
X127061905Y-123536723D02*
X127014286Y-123346247D01*
X127014286Y-123346247D02*
X127014286Y-123203390D01*
X127014286Y-123203390D02*
X127061905Y-123012914D01*
X127061905Y-123012914D02*
X127109524Y-122917676D01*
X127109524Y-122917676D02*
X127204762Y-122822438D01*
X127204762Y-122822438D02*
X127347619Y-122774819D01*
X127347619Y-122774819D02*
X127442857Y-122774819D01*
X127442857Y-122774819D02*
X127585714Y-122822438D01*
X127585714Y-122822438D02*
X127633333Y-122870057D01*
X128490476Y-123108152D02*
X128490476Y-123774819D01*
X128252381Y-122727200D02*
X128014286Y-123441485D01*
X128014286Y-123441485D02*
X128633333Y-123441485D01*
X117633333Y-106804819D02*
X117157143Y-106804819D01*
X117157143Y-106804819D02*
X117157143Y-105804819D01*
X118490476Y-106804819D02*
X117919048Y-106804819D01*
X118204762Y-106804819D02*
X118204762Y-105804819D01*
X118204762Y-105804819D02*
X118109524Y-105947676D01*
X118109524Y-105947676D02*
X118014286Y-106042914D01*
X118014286Y-106042914D02*
X117919048Y-106090533D01*
X131479580Y-107126666D02*
X131527200Y-107174285D01*
X131527200Y-107174285D02*
X131574819Y-107317142D01*
X131574819Y-107317142D02*
X131574819Y-107412380D01*
X131574819Y-107412380D02*
X131527200Y-107555237D01*
X131527200Y-107555237D02*
X131431961Y-107650475D01*
X131431961Y-107650475D02*
X131336723Y-107698094D01*
X131336723Y-107698094D02*
X131146247Y-107745713D01*
X131146247Y-107745713D02*
X131003390Y-107745713D01*
X131003390Y-107745713D02*
X130812914Y-107698094D01*
X130812914Y-107698094D02*
X130717676Y-107650475D01*
X130717676Y-107650475D02*
X130622438Y-107555237D01*
X130622438Y-107555237D02*
X130574819Y-107412380D01*
X130574819Y-107412380D02*
X130574819Y-107317142D01*
X130574819Y-107317142D02*
X130622438Y-107174285D01*
X130622438Y-107174285D02*
X130670057Y-107126666D01*
X130670057Y-106745713D02*
X130622438Y-106698094D01*
X130622438Y-106698094D02*
X130574819Y-106602856D01*
X130574819Y-106602856D02*
X130574819Y-106364761D01*
X130574819Y-106364761D02*
X130622438Y-106269523D01*
X130622438Y-106269523D02*
X130670057Y-106221904D01*
X130670057Y-106221904D02*
X130765295Y-106174285D01*
X130765295Y-106174285D02*
X130860533Y-106174285D01*
X130860533Y-106174285D02*
X131003390Y-106221904D01*
X131003390Y-106221904D02*
X131574819Y-106793332D01*
X131574819Y-106793332D02*
X131574819Y-106174285D01*
X134904819Y-126186666D02*
X134904819Y-126662856D01*
X134904819Y-126662856D02*
X133904819Y-126662856D01*
X133904819Y-125377142D02*
X133904819Y-125853332D01*
X133904819Y-125853332D02*
X134381009Y-125900951D01*
X134381009Y-125900951D02*
X134333390Y-125853332D01*
X134333390Y-125853332D02*
X134285771Y-125758094D01*
X134285771Y-125758094D02*
X134285771Y-125519999D01*
X134285771Y-125519999D02*
X134333390Y-125424761D01*
X134333390Y-125424761D02*
X134381009Y-125377142D01*
X134381009Y-125377142D02*
X134476247Y-125329523D01*
X134476247Y-125329523D02*
X134714342Y-125329523D01*
X134714342Y-125329523D02*
X134809580Y-125377142D01*
X134809580Y-125377142D02*
X134857200Y-125424761D01*
X134857200Y-125424761D02*
X134904819Y-125519999D01*
X134904819Y-125519999D02*
X134904819Y-125758094D01*
X134904819Y-125758094D02*
X134857200Y-125853332D01*
X134857200Y-125853332D02*
X134809580Y-125900951D01*
X137633333Y-106804819D02*
X137157143Y-106804819D01*
X137157143Y-106804819D02*
X137157143Y-105804819D01*
X137871429Y-105804819D02*
X138490476Y-105804819D01*
X138490476Y-105804819D02*
X138157143Y-106185771D01*
X138157143Y-106185771D02*
X138300000Y-106185771D01*
X138300000Y-106185771D02*
X138395238Y-106233390D01*
X138395238Y-106233390D02*
X138442857Y-106281009D01*
X138442857Y-106281009D02*
X138490476Y-106376247D01*
X138490476Y-106376247D02*
X138490476Y-106614342D01*
X138490476Y-106614342D02*
X138442857Y-106709580D01*
X138442857Y-106709580D02*
X138395238Y-106757200D01*
X138395238Y-106757200D02*
X138300000Y-106804819D01*
X138300000Y-106804819D02*
X138014286Y-106804819D01*
X138014286Y-106804819D02*
X137919048Y-106757200D01*
X137919048Y-106757200D02*
X137871429Y-106709580D01*
D11*
G04 #@! TO.C,C1*
X122065000Y-107221252D02*
X122065000Y-106698748D01*
X123535000Y-107221252D02*
X123535000Y-106698748D01*
G04 #@! TO.C,C5*
X137538748Y-124265000D02*
X138061252Y-124265000D01*
X137538748Y-125735000D02*
X138061252Y-125735000D01*
G04 #@! TO.C,C3*
X117538748Y-124265000D02*
X118061252Y-124265000D01*
X117538748Y-125735000D02*
X118061252Y-125735000D01*
G04 #@! TO.C,L2*
X127538748Y-107290000D02*
X128061252Y-107290000D01*
X127538748Y-108710000D02*
X128061252Y-108710000D01*
G04 #@! TO.C,L4*
X123510000Y-125758748D02*
X123510000Y-126281252D01*
X122090000Y-125758748D02*
X122090000Y-126281252D01*
G04 #@! TO.C,C4*
X127538748Y-124265000D02*
X128061252Y-124265000D01*
X127538748Y-125735000D02*
X128061252Y-125735000D01*
G04 #@! TO.C,L1*
X117538748Y-107290000D02*
X118061252Y-107290000D01*
X117538748Y-108710000D02*
X118061252Y-108710000D01*
G04 #@! TO.C,J3*
X140500000Y-132500000D02*
X140500000Y-117500000D01*
G04 #@! TO.C,J2*
X140500000Y-115500000D02*
X140500000Y-100500000D01*
G04 #@! TO.C,C2*
X132065000Y-107221252D02*
X132065000Y-106698748D01*
X133535000Y-107221252D02*
X133535000Y-106698748D01*
G04 #@! TO.C,J1*
X115000000Y-109000000D02*
X115000000Y-124000000D01*
G04 #@! TO.C,L5*
X133510000Y-125758748D02*
X133510000Y-126281252D01*
X132090000Y-125758748D02*
X132090000Y-126281252D01*
G04 #@! TO.C,L3*
X137538748Y-107290000D02*
X138061252Y-107290000D01*
X137538748Y-108710000D02*
X138061252Y-108710000D01*
G04 #@! TD*
%LPC*%
D12*
G04 #@! TO.C,C1*
X122800000Y-107997500D03*
X122800000Y-105922500D03*
G04 #@! TD*
D13*
G04 #@! TO.C,C5*
X136762500Y-125000000D03*
X138837500Y-125000000D03*
G04 #@! TD*
G04 #@! TO.C,C3*
X116762500Y-125000000D03*
X118837500Y-125000000D03*
G04 #@! TD*
D14*
G04 #@! TO.C,L2*
X126775000Y-108000000D03*
X128825000Y-108000000D03*
G04 #@! TD*
D15*
G04 #@! TO.C,L4*
X122800000Y-124995000D03*
X122800000Y-127045000D03*
G04 #@! TD*
D13*
G04 #@! TO.C,C4*
X126762500Y-125000000D03*
X128837500Y-125000000D03*
G04 #@! TD*
D16*
G04 #@! TO.C,H2*
X131150000Y-116500000D03*
X131633274Y-115333274D03*
X131633274Y-117666726D03*
X132800000Y-114850000D03*
D17*
X132800000Y-116500000D03*
D16*
X132800000Y-118150000D03*
X133966726Y-115333274D03*
X133966726Y-117666726D03*
X134450000Y-116500000D03*
G04 #@! TD*
D14*
G04 #@! TO.C,L1*
X116775000Y-108000000D03*
X118825000Y-108000000D03*
G04 #@! TD*
D18*
G04 #@! TO.C,J3*
X142800000Y-125000000D03*
D19*
X147880000Y-119920000D03*
D18*
X142800000Y-122460000D03*
D19*
X147880000Y-130080000D03*
G04 #@! TD*
D16*
G04 #@! TO.C,H1*
X121150000Y-116500000D03*
X121633274Y-115333274D03*
X121633274Y-117666726D03*
X122800000Y-114850000D03*
D17*
X122800000Y-116500000D03*
D16*
X122800000Y-118150000D03*
X123966726Y-115333274D03*
X123966726Y-117666726D03*
X124450000Y-116500000D03*
G04 #@! TD*
D18*
G04 #@! TO.C,J2*
X142800000Y-108000000D03*
D19*
X147880000Y-102920000D03*
D18*
X142800000Y-105460000D03*
D19*
X147880000Y-113080000D03*
G04 #@! TD*
D12*
G04 #@! TO.C,C2*
X132800000Y-107997500D03*
X132800000Y-105922500D03*
G04 #@! TD*
D18*
G04 #@! TO.C,J1*
X112700000Y-116500000D03*
D19*
X107620000Y-121580000D03*
D18*
X112700000Y-119040000D03*
D19*
X107620000Y-111420000D03*
G04 #@! TD*
D15*
G04 #@! TO.C,L5*
X132800000Y-124995000D03*
X132800000Y-127045000D03*
G04 #@! TD*
D14*
G04 #@! TO.C,L3*
X136775000Y-108000000D03*
X138825000Y-108000000D03*
G04 #@! TD*
%LPD*%
M02*
