G04 #@! TF.GenerationSoftware,KiCad,Pcbnew,7.0.11+dfsg-1build4*
G04 #@! TF.CreationDate,2026-09-30T09:07:19+02:00*
G04 #@! TF.ProjectId,diplexor_2m70cm_BNC,6469706c-6578-46f7-925f-326d3730636d,rev?*
G04 #@! TF.SameCoordinates,Original*
G04 #@! TF.FileFunction,Copper,L2,Bot*
G04 #@! TF.FilePolarity,Positive*
%FSLAX46Y46*%
G04 Gerber Fmt 4.6, Leading zero omitted, Abs format (unit mm)*
G04 Created by KiCad (PCBNEW 7.0.11+dfsg-1build4) date 2026-09-30 09:07:19*
%MOMM*%
%LPD*%
G01*
G04 APERTURE LIST*
G04 #@! TA.AperFunction,ComponentPad*
%ADD10C,0.700000*%
G04 #@! TD*
G04 #@! TA.AperFunction,ComponentPad*
%ADD11C,4.400000*%
G04 #@! TD*
G04 #@! TA.AperFunction,ComponentPad*
%ADD12O,2.500000X1.600000*%
G04 #@! TD*
G04 #@! TA.AperFunction,ComponentPad*
%ADD13O,7.000000X3.500000*%
G04 #@! TD*
G04 #@! TA.AperFunction,ViaPad*
%ADD14C,0.800000*%
G04 #@! TD*
G04 APERTURE END LIST*
D10*
G04 #@! TO.P,H2,1*
G04 #@! TO.N,GND*
X131150000Y-116500000D03*
X131633274Y-115333274D03*
X131633274Y-117666726D03*
X132800000Y-114850000D03*
D11*
X132800000Y-116500000D03*
D10*
X132800000Y-118150000D03*
X133966726Y-115333274D03*
X133966726Y-117666726D03*
X134450000Y-116500000D03*
G04 #@! TD*
D12*
G04 #@! TO.P,J3,1*
G04 #@! TO.N,OUT_70CM*
X142800000Y-125000000D03*
D13*
G04 #@! TO.P,J3,2*
G04 #@! TO.N,GND*
X147880000Y-119920000D03*
D12*
X142800000Y-122460000D03*
D13*
X147880000Y-130080000D03*
G04 #@! TD*
D10*
G04 #@! TO.P,H1,1*
G04 #@! TO.N,GND*
X121150000Y-116500000D03*
X121633274Y-115333274D03*
X121633274Y-117666726D03*
X122800000Y-114850000D03*
D11*
X122800000Y-116500000D03*
D10*
X122800000Y-118150000D03*
X123966726Y-115333274D03*
X123966726Y-117666726D03*
X124450000Y-116500000D03*
G04 #@! TD*
D12*
G04 #@! TO.P,J2,1*
G04 #@! TO.N,OUT_2M*
X142800000Y-108000000D03*
D13*
G04 #@! TO.P,J2,2*
G04 #@! TO.N,GND*
X147880000Y-102920000D03*
D12*
X142800000Y-105460000D03*
D13*
X147880000Y-113080000D03*
G04 #@! TD*
D12*
G04 #@! TO.P,J1,1*
G04 #@! TO.N,RADIO*
X112700000Y-116500000D03*
D13*
G04 #@! TO.P,J1,2*
G04 #@! TO.N,GND*
X107620000Y-121580000D03*
D12*
X112700000Y-119040000D03*
D13*
X107620000Y-111420000D03*
G04 #@! TD*
D14*
G04 #@! TO.N,GND*
X125769603Y-126798748D03*
X129817617Y-106199375D03*
X101500000Y-122500000D03*
X116500000Y-128500000D03*
X119830396Y-126798748D03*
X117200000Y-122450000D03*
X113600000Y-110550000D03*
X110500000Y-116500000D03*
X131900000Y-128395000D03*
X134500000Y-119500000D03*
X101500000Y-116500000D03*
X152500000Y-119500000D03*
X146500000Y-107500000D03*
X110500000Y-104500000D03*
X113600000Y-122450000D03*
X122500000Y-119500000D03*
X119500000Y-113500000D03*
X101500000Y-101500000D03*
X137500000Y-104500000D03*
X134500000Y-131500000D03*
X125500000Y-101500000D03*
X107500000Y-131500000D03*
X110500000Y-131500000D03*
X146500000Y-122500000D03*
X104500000Y-119500000D03*
X117200000Y-110550000D03*
X121900000Y-104572500D03*
X133700000Y-104572500D03*
X110500000Y-128500000D03*
X107500000Y-128500000D03*
X152500000Y-116500000D03*
X139818750Y-106200000D03*
X128500000Y-119500000D03*
X121900000Y-128395000D03*
X149500000Y-122500000D03*
X117200000Y-112250000D03*
X110500000Y-125500000D03*
X110500000Y-107500000D03*
X139818750Y-109800000D03*
X104500000Y-116500000D03*
X113500000Y-104500000D03*
X113600000Y-120750000D03*
X141806250Y-109800000D03*
X140500000Y-119500000D03*
X101500000Y-125500000D03*
X149500000Y-116500000D03*
X137500000Y-110500000D03*
X107500000Y-101500000D03*
X131500000Y-131500000D03*
X104500000Y-107500000D03*
X131500000Y-113500000D03*
X131500000Y-101500000D03*
X152500000Y-104500000D03*
X107500000Y-107500000D03*
X116500000Y-104500000D03*
X152500000Y-110500000D03*
X137500000Y-101500000D03*
X119500000Y-104500000D03*
X137500000Y-128500000D03*
X152500000Y-122500000D03*
X139828125Y-126800000D03*
X143500000Y-116500000D03*
X137500000Y-113500000D03*
X113375000Y-114700000D03*
X122500000Y-131500000D03*
X110500000Y-113500000D03*
X117200000Y-113950000D03*
X122500000Y-113500000D03*
X134500000Y-113500000D03*
X131900000Y-104572500D03*
X119500000Y-101500000D03*
X123699999Y-128395000D03*
X143500000Y-128500000D03*
X134500000Y-101500000D03*
X107500000Y-104500000D03*
X143500000Y-131500000D03*
X104500000Y-131500000D03*
X140500000Y-101500000D03*
X152500000Y-131500000D03*
X101500000Y-113500000D03*
X141809375Y-126800000D03*
X143500000Y-110500000D03*
X152500000Y-125500000D03*
X107500000Y-116500000D03*
X113600000Y-108850000D03*
X119817617Y-106199375D03*
X119500000Y-128500000D03*
X125500000Y-113500000D03*
X140500000Y-104500000D03*
X140500000Y-128500000D03*
X107500000Y-113500000D03*
X128500000Y-131500000D03*
X101500000Y-119500000D03*
X152500000Y-101500000D03*
X152500000Y-107500000D03*
X139828125Y-123200000D03*
X116500000Y-131500000D03*
X104500000Y-128500000D03*
X113600000Y-124150000D03*
X101500000Y-131500000D03*
X117200000Y-120750000D03*
X143500000Y-113500000D03*
X119500000Y-116500000D03*
X125782382Y-106199375D03*
X135782382Y-106199375D03*
X137500000Y-119500000D03*
X117200000Y-115650000D03*
X116081250Y-126800000D03*
X146500000Y-125500000D03*
X135769603Y-126798748D03*
X146500000Y-110500000D03*
X116500000Y-101500000D03*
X104500000Y-104500000D03*
X110500000Y-101500000D03*
X119500000Y-119500000D03*
X149500000Y-107500000D03*
X125500000Y-119500000D03*
X143500000Y-119500000D03*
X140500000Y-113500000D03*
X107500000Y-125500000D03*
X128500000Y-104500000D03*
X149500000Y-125500000D03*
X119500000Y-131500000D03*
X104500000Y-113500000D03*
X110500000Y-119500000D03*
X117200000Y-119050000D03*
X140500000Y-131500000D03*
X137500000Y-116500000D03*
X125500000Y-104500000D03*
X152500000Y-128500000D03*
X143500000Y-101500000D03*
X149500000Y-110500000D03*
X128500000Y-113500000D03*
X125500000Y-131500000D03*
X104500000Y-125500000D03*
X116087500Y-106200000D03*
X113500000Y-131500000D03*
X137500000Y-131500000D03*
X140500000Y-116500000D03*
X122500000Y-101500000D03*
X104500000Y-101500000D03*
X125500000Y-128500000D03*
X125500000Y-116500000D03*
X133700000Y-128395000D03*
X117200000Y-117350000D03*
X129830396Y-126798748D03*
X101500000Y-107500000D03*
X128500000Y-128500000D03*
X146500000Y-116500000D03*
X113500000Y-128500000D03*
X123699999Y-104572500D03*
X152500000Y-113500000D03*
X128500000Y-101500000D03*
X101500000Y-104500000D03*
X101500000Y-128500000D03*
X101500000Y-110500000D03*
X131500000Y-119500000D03*
X113600000Y-112250000D03*
X107500000Y-119500000D03*
X113500000Y-101500000D03*
G04 #@! TD*
G04 #@! TA.AperFunction,Conductor*
G04 #@! TO.N,GND*
G36*
X155442539Y-100020185D02*
G01*
X155488294Y-100072989D01*
X155499500Y-100124500D01*
X155499500Y-132875500D01*
X155479815Y-132942539D01*
X155427011Y-132988294D01*
X155375500Y-132999500D01*
X100124500Y-132999500D01*
X100057461Y-132979815D01*
X100011706Y-132927011D01*
X100000500Y-132875500D01*
X100000500Y-129780000D01*
X144100239Y-129780000D01*
X146919535Y-129780000D01*
X146881466Y-129927030D01*
X146871114Y-130131165D01*
X146902065Y-130333205D01*
X146919396Y-130380000D01*
X144101274Y-130380000D01*
X144136035Y-130577146D01*
X144136038Y-130577157D01*
X144224632Y-130849821D01*
X144350308Y-131107495D01*
X144350313Y-131107502D01*
X144510631Y-131345184D01*
X144510636Y-131345191D01*
X144702468Y-131558243D01*
X144702475Y-131558250D01*
X144922092Y-131742531D01*
X145165226Y-131894459D01*
X145427146Y-132011073D01*
X145427157Y-132011077D01*
X145702736Y-132090098D01*
X145702746Y-132090100D01*
X145986646Y-132129999D01*
X145986648Y-132130000D01*
X147580000Y-132130000D01*
X147580000Y-131044350D01*
X147777801Y-131085000D01*
X147930967Y-131085000D01*
X148083348Y-131069504D01*
X148180000Y-131039179D01*
X148180000Y-132130000D01*
X149701578Y-132130000D01*
X149701602Y-132129999D01*
X149916000Y-132115007D01*
X149916011Y-132115005D01*
X150196433Y-132055399D01*
X150465841Y-131957342D01*
X150718981Y-131822747D01*
X150718988Y-131822742D01*
X150950924Y-131654232D01*
X150950931Y-131654226D01*
X151157165Y-131455068D01*
X151333676Y-131229145D01*
X151477024Y-130980859D01*
X151477030Y-130980847D01*
X151584426Y-130715033D01*
X151653785Y-130436847D01*
X151659761Y-130380000D01*
X148840465Y-130380000D01*
X148878534Y-130232970D01*
X148888886Y-130028835D01*
X148857935Y-129826795D01*
X148840604Y-129780000D01*
X151658726Y-129780000D01*
X151623964Y-129582853D01*
X151623961Y-129582842D01*
X151535367Y-129310178D01*
X151409691Y-129052504D01*
X151409686Y-129052497D01*
X151249368Y-128814815D01*
X151249363Y-128814808D01*
X151057531Y-128601756D01*
X151057524Y-128601749D01*
X150837907Y-128417468D01*
X150594773Y-128265540D01*
X150332853Y-128148926D01*
X150332842Y-128148922D01*
X150057263Y-128069901D01*
X150057253Y-128069899D01*
X149773353Y-128030000D01*
X148180000Y-128030000D01*
X148180000Y-129115649D01*
X147982199Y-129075000D01*
X147829033Y-129075000D01*
X147676652Y-129090496D01*
X147580000Y-129120820D01*
X147580000Y-128030000D01*
X146058397Y-128030000D01*
X145843999Y-128044992D01*
X145843988Y-128044994D01*
X145563566Y-128104600D01*
X145294158Y-128202657D01*
X145041018Y-128337252D01*
X145041011Y-128337257D01*
X144809075Y-128505767D01*
X144809068Y-128505773D01*
X144602834Y-128704931D01*
X144426323Y-128930854D01*
X144282975Y-129179140D01*
X144282969Y-129179152D01*
X144175573Y-129444966D01*
X144106214Y-129723152D01*
X144100239Y-129780000D01*
X100000500Y-129780000D01*
X100000500Y-125000000D01*
X141294417Y-125000000D01*
X141314699Y-125205932D01*
X141314700Y-125205934D01*
X141374768Y-125403954D01*
X141472315Y-125586450D01*
X141472317Y-125586452D01*
X141603589Y-125746410D01*
X141700209Y-125825702D01*
X141763550Y-125877685D01*
X141946046Y-125975232D01*
X142144066Y-126035300D01*
X142144065Y-126035300D01*
X142182647Y-126039100D01*
X142298392Y-126050500D01*
X142298395Y-126050500D01*
X143301605Y-126050500D01*
X143301608Y-126050500D01*
X143455934Y-126035300D01*
X143653954Y-125975232D01*
X143836450Y-125877685D01*
X143996410Y-125746410D01*
X144127685Y-125586450D01*
X144225232Y-125403954D01*
X144285300Y-125205934D01*
X144305583Y-125000000D01*
X144285300Y-124794066D01*
X144225232Y-124596046D01*
X144127685Y-124413550D01*
X144075702Y-124350209D01*
X143996410Y-124253589D01*
X143836452Y-124122317D01*
X143836453Y-124122317D01*
X143836450Y-124122315D01*
X143653954Y-124024768D01*
X143455934Y-123964700D01*
X143455932Y-123964699D01*
X143455934Y-123964699D01*
X143336805Y-123952966D01*
X143301608Y-123949500D01*
X142298392Y-123949500D01*
X142260298Y-123953251D01*
X142144067Y-123964699D01*
X141946043Y-124024769D01*
X141835898Y-124083643D01*
X141763550Y-124122315D01*
X141763548Y-124122316D01*
X141763547Y-124122317D01*
X141603589Y-124253589D01*
X141472317Y-124413547D01*
X141374769Y-124596043D01*
X141314699Y-124794067D01*
X141294417Y-125000000D01*
X100000500Y-125000000D01*
X100000500Y-121280000D01*
X103840239Y-121280000D01*
X106659535Y-121280000D01*
X106621466Y-121427030D01*
X106611114Y-121631165D01*
X106642065Y-121833205D01*
X106659396Y-121880000D01*
X103841274Y-121880000D01*
X103876035Y-122077146D01*
X103876038Y-122077157D01*
X103964632Y-122349821D01*
X104090308Y-122607495D01*
X104090313Y-122607502D01*
X104250631Y-122845184D01*
X104250636Y-122845191D01*
X104442468Y-123058243D01*
X104442475Y-123058250D01*
X104662092Y-123242531D01*
X104905226Y-123394459D01*
X105167146Y-123511073D01*
X105167157Y-123511077D01*
X105442736Y-123590098D01*
X105442746Y-123590100D01*
X105726646Y-123629999D01*
X105726648Y-123630000D01*
X107320000Y-123630000D01*
X107320000Y-122544350D01*
X107517801Y-122585000D01*
X107670967Y-122585000D01*
X107823348Y-122569504D01*
X107920000Y-122539179D01*
X107920000Y-123630000D01*
X109441578Y-123630000D01*
X109441602Y-123629999D01*
X109656000Y-123615007D01*
X109656011Y-123615005D01*
X109936433Y-123555399D01*
X110205841Y-123457342D01*
X110458981Y-123322747D01*
X110458988Y-123322742D01*
X110690924Y-123154232D01*
X110690931Y-123154226D01*
X110897165Y-122955068D01*
X111073676Y-122729145D01*
X111217024Y-122480859D01*
X111217030Y-122480847D01*
X111324426Y-122215033D01*
X111338147Y-122160000D01*
X141289810Y-122160000D01*
X142469078Y-122160000D01*
X142448156Y-122179413D01*
X142381083Y-122295587D01*
X142351232Y-122426370D01*
X142361257Y-122560140D01*
X142410266Y-122685013D01*
X142470067Y-122760000D01*
X141290872Y-122760000D01*
X141305770Y-122821409D01*
X141393040Y-123012507D01*
X141514889Y-123183619D01*
X141514895Y-123183625D01*
X141666932Y-123328592D01*
X141843657Y-123442166D01*
X142038685Y-123520244D01*
X142244962Y-123560000D01*
X142500000Y-123560000D01*
X142500000Y-122794047D01*
X142604741Y-122865459D01*
X142732927Y-122905000D01*
X142833346Y-122905000D01*
X142932647Y-122890033D01*
X143053509Y-122831829D01*
X143100000Y-122788691D01*
X143100000Y-123560000D01*
X143302398Y-123560000D01*
X143459122Y-123545034D01*
X143459126Y-123545033D01*
X143660686Y-123485850D01*
X143847414Y-123389586D01*
X144012537Y-123259731D01*
X144012540Y-123259728D01*
X144150105Y-123100969D01*
X144150114Y-123100958D01*
X144255144Y-122919039D01*
X144255149Y-122919029D01*
X144310190Y-122760000D01*
X143130922Y-122760000D01*
X143151844Y-122740587D01*
X143218917Y-122624413D01*
X143248768Y-122493630D01*
X143238743Y-122359860D01*
X143189734Y-122234987D01*
X143129933Y-122160000D01*
X144309128Y-122160000D01*
X144309127Y-122159999D01*
X144294229Y-122098590D01*
X144206959Y-121907492D01*
X144085110Y-121736380D01*
X144085104Y-121736374D01*
X143933067Y-121591407D01*
X143756342Y-121477833D01*
X143561314Y-121399755D01*
X143355038Y-121360000D01*
X143100000Y-121360000D01*
X143100000Y-122125952D01*
X142995259Y-122054541D01*
X142867073Y-122015000D01*
X142766654Y-122015000D01*
X142667353Y-122029967D01*
X142546491Y-122088171D01*
X142500000Y-122131308D01*
X142500000Y-121360000D01*
X142297602Y-121360000D01*
X142140877Y-121374965D01*
X142140873Y-121374966D01*
X141939313Y-121434149D01*
X141752585Y-121530413D01*
X141587462Y-121660268D01*
X141587459Y-121660271D01*
X141449894Y-121819030D01*
X141449885Y-121819041D01*
X141344855Y-122000960D01*
X141344850Y-122000970D01*
X141289810Y-122160000D01*
X111338147Y-122160000D01*
X111393785Y-121936847D01*
X111399761Y-121880000D01*
X108580465Y-121880000D01*
X108618534Y-121732970D01*
X108628886Y-121528835D01*
X108597935Y-121326795D01*
X108580604Y-121280000D01*
X111398726Y-121280000D01*
X111363964Y-121082853D01*
X111363961Y-121082842D01*
X111275367Y-120810178D01*
X111149691Y-120552504D01*
X111149686Y-120552497D01*
X110989368Y-120314815D01*
X110989363Y-120314808D01*
X110797531Y-120101756D01*
X110797524Y-120101749D01*
X110577907Y-119917468D01*
X110334773Y-119765540D01*
X110072853Y-119648926D01*
X110072842Y-119648922D01*
X109797263Y-119569901D01*
X109797253Y-119569899D01*
X109513353Y-119530000D01*
X107920000Y-119530000D01*
X107920000Y-120615649D01*
X107722199Y-120575000D01*
X107569033Y-120575000D01*
X107416652Y-120590496D01*
X107320000Y-120620820D01*
X107320000Y-119530000D01*
X105798397Y-119530000D01*
X105583999Y-119544992D01*
X105583988Y-119544994D01*
X105303566Y-119604600D01*
X105034158Y-119702657D01*
X104781018Y-119837252D01*
X104781011Y-119837257D01*
X104549075Y-120005767D01*
X104549068Y-120005773D01*
X104342834Y-120204931D01*
X104166323Y-120430854D01*
X104022975Y-120679140D01*
X104022969Y-120679152D01*
X103915573Y-120944966D01*
X103846214Y-121223152D01*
X103840239Y-121280000D01*
X100000500Y-121280000D01*
X100000500Y-118740000D01*
X111189810Y-118740000D01*
X112369078Y-118740000D01*
X112348156Y-118759413D01*
X112281083Y-118875587D01*
X112251232Y-119006370D01*
X112261257Y-119140140D01*
X112310266Y-119265013D01*
X112370067Y-119340000D01*
X111190872Y-119340000D01*
X111205770Y-119401409D01*
X111293040Y-119592507D01*
X111414889Y-119763619D01*
X111414895Y-119763625D01*
X111566932Y-119908592D01*
X111743657Y-120022166D01*
X111938685Y-120100244D01*
X112144962Y-120140000D01*
X112400000Y-120140000D01*
X112400000Y-119374047D01*
X112504741Y-119445459D01*
X112632927Y-119485000D01*
X112733346Y-119485000D01*
X112832647Y-119470033D01*
X112953509Y-119411829D01*
X113000000Y-119368691D01*
X113000000Y-120140000D01*
X113202398Y-120140000D01*
X113359122Y-120125034D01*
X113359126Y-120125033D01*
X113560686Y-120065850D01*
X113747414Y-119969586D01*
X113912537Y-119839731D01*
X113912540Y-119839728D01*
X114050105Y-119680969D01*
X114050114Y-119680958D01*
X114085308Y-119620000D01*
X144100239Y-119620000D01*
X146919535Y-119620000D01*
X146881466Y-119767030D01*
X146871114Y-119971165D01*
X146902065Y-120173205D01*
X146919396Y-120220000D01*
X144101274Y-120220000D01*
X144136035Y-120417146D01*
X144136038Y-120417157D01*
X144224632Y-120689821D01*
X144350308Y-120947495D01*
X144350313Y-120947502D01*
X144510631Y-121185184D01*
X144510636Y-121185191D01*
X144702468Y-121398243D01*
X144702475Y-121398250D01*
X144922092Y-121582531D01*
X145165226Y-121734459D01*
X145427146Y-121851073D01*
X145427157Y-121851077D01*
X145702736Y-121930098D01*
X145702746Y-121930100D01*
X145986646Y-121969999D01*
X145986648Y-121970000D01*
X147580000Y-121970000D01*
X147580000Y-120884350D01*
X147777801Y-120925000D01*
X147930967Y-120925000D01*
X148083348Y-120909504D01*
X148180000Y-120879179D01*
X148180000Y-121970000D01*
X149701578Y-121970000D01*
X149701602Y-121969999D01*
X149916000Y-121955007D01*
X149916011Y-121955005D01*
X150196433Y-121895399D01*
X150465841Y-121797342D01*
X150718981Y-121662747D01*
X150718988Y-121662742D01*
X150950924Y-121494232D01*
X150950931Y-121494226D01*
X151157165Y-121295068D01*
X151333676Y-121069145D01*
X151477024Y-120820859D01*
X151477030Y-120820847D01*
X151584426Y-120555033D01*
X151653785Y-120276847D01*
X151659761Y-120220000D01*
X148840465Y-120220000D01*
X148878534Y-120072970D01*
X148888886Y-119868835D01*
X148857935Y-119666795D01*
X148840604Y-119620000D01*
X151658726Y-119620000D01*
X151623964Y-119422853D01*
X151623961Y-119422842D01*
X151535367Y-119150178D01*
X151409691Y-118892504D01*
X151409686Y-118892497D01*
X151249368Y-118654815D01*
X151249363Y-118654808D01*
X151057531Y-118441756D01*
X151057524Y-118441749D01*
X150837907Y-118257468D01*
X150594773Y-118105540D01*
X150332853Y-117988926D01*
X150332842Y-117988922D01*
X150057263Y-117909901D01*
X150057253Y-117909899D01*
X149773353Y-117870000D01*
X148180000Y-117870000D01*
X148180000Y-118955649D01*
X147982199Y-118915000D01*
X147829033Y-118915000D01*
X147676652Y-118930496D01*
X147580000Y-118960820D01*
X147580000Y-117870000D01*
X146058397Y-117870000D01*
X145843999Y-117884992D01*
X145843988Y-117884994D01*
X145563566Y-117944600D01*
X145294158Y-118042657D01*
X145041018Y-118177252D01*
X145041011Y-118177257D01*
X144809075Y-118345767D01*
X144809068Y-118345773D01*
X144602834Y-118544931D01*
X144426323Y-118770854D01*
X144282975Y-119019140D01*
X144282969Y-119019152D01*
X144175573Y-119284966D01*
X144106214Y-119563152D01*
X144100239Y-119620000D01*
X114085308Y-119620000D01*
X114155144Y-119499039D01*
X114155149Y-119499029D01*
X114210190Y-119340000D01*
X113030922Y-119340000D01*
X113051844Y-119320587D01*
X113118917Y-119204413D01*
X113148768Y-119073630D01*
X113138743Y-118939860D01*
X113089734Y-118814987D01*
X113029933Y-118740000D01*
X114209128Y-118740000D01*
X114209127Y-118739999D01*
X114194229Y-118678590D01*
X114106959Y-118487492D01*
X113985110Y-118316380D01*
X113985104Y-118316374D01*
X113833067Y-118171407D01*
X113656342Y-118057833D01*
X113461314Y-117979755D01*
X113255038Y-117940000D01*
X113000000Y-117940000D01*
X113000000Y-118705952D01*
X112895259Y-118634541D01*
X112767073Y-118595000D01*
X112666654Y-118595000D01*
X112567353Y-118609967D01*
X112446491Y-118668171D01*
X112400000Y-118711308D01*
X112400000Y-117940000D01*
X112197602Y-117940000D01*
X112040877Y-117954965D01*
X112040873Y-117954966D01*
X111839313Y-118014149D01*
X111652585Y-118110413D01*
X111487462Y-118240268D01*
X111487459Y-118240271D01*
X111349894Y-118399030D01*
X111349885Y-118399041D01*
X111244855Y-118580960D01*
X111244850Y-118580970D01*
X111189810Y-118740000D01*
X100000500Y-118740000D01*
X100000500Y-116500000D01*
X111194417Y-116500000D01*
X111214699Y-116705932D01*
X111214700Y-116705934D01*
X111274768Y-116903954D01*
X111372315Y-117086450D01*
X111372317Y-117086452D01*
X111503589Y-117246410D01*
X111600209Y-117325702D01*
X111663550Y-117377685D01*
X111846046Y-117475232D01*
X112044066Y-117535300D01*
X112044065Y-117535300D01*
X112082647Y-117539100D01*
X112198392Y-117550500D01*
X112198395Y-117550500D01*
X113201605Y-117550500D01*
X113201608Y-117550500D01*
X113355934Y-117535300D01*
X113553954Y-117475232D01*
X113736450Y-117377685D01*
X113896410Y-117246410D01*
X114027685Y-117086450D01*
X114125232Y-116903954D01*
X114185300Y-116705934D01*
X114205583Y-116500005D01*
X120295057Y-116500005D01*
X120314807Y-116813942D01*
X120314808Y-116813949D01*
X120373755Y-117122958D01*
X120470963Y-117422132D01*
X120470965Y-117422137D01*
X120604900Y-117706761D01*
X120604903Y-117706767D01*
X120773452Y-117972359D01*
X120832273Y-118043461D01*
X121836829Y-117038906D01*
X121843038Y-117052502D01*
X121964894Y-117223624D01*
X122116932Y-117368592D01*
X122262268Y-117461994D01*
X121255926Y-118468335D01*
X121255927Y-118468337D01*
X121457772Y-118614985D01*
X121457790Y-118614996D01*
X121733447Y-118766540D01*
X121733455Y-118766544D01*
X122025926Y-118882340D01*
X122330620Y-118960573D01*
X122330629Y-118960575D01*
X122642701Y-118999999D01*
X122642715Y-119000000D01*
X122957285Y-119000000D01*
X122957298Y-118999999D01*
X123269370Y-118960575D01*
X123269379Y-118960573D01*
X123574073Y-118882340D01*
X123866544Y-118766544D01*
X123866552Y-118766540D01*
X124142209Y-118614996D01*
X124142219Y-118614990D01*
X124344071Y-118468335D01*
X124344072Y-118468335D01*
X123336649Y-117460913D01*
X123397410Y-117429589D01*
X123562540Y-117299729D01*
X123700110Y-117140965D01*
X123760547Y-117036283D01*
X124767725Y-118043462D01*
X124767726Y-118043462D01*
X124826534Y-117972377D01*
X124995100Y-117706760D01*
X125129034Y-117422137D01*
X125129036Y-117422132D01*
X125226244Y-117122958D01*
X125285191Y-116813949D01*
X125285192Y-116813942D01*
X125304943Y-116500005D01*
X130295057Y-116500005D01*
X130314807Y-116813942D01*
X130314808Y-116813949D01*
X130373755Y-117122958D01*
X130470963Y-117422132D01*
X130470965Y-117422137D01*
X130604900Y-117706761D01*
X130604903Y-117706767D01*
X130773452Y-117972359D01*
X130832273Y-118043461D01*
X131836829Y-117038906D01*
X131843038Y-117052502D01*
X131964894Y-117223624D01*
X132116932Y-117368592D01*
X132262268Y-117461994D01*
X131255926Y-118468335D01*
X131255927Y-118468337D01*
X131457772Y-118614985D01*
X131457790Y-118614996D01*
X131733447Y-118766540D01*
X131733455Y-118766544D01*
X132025926Y-118882340D01*
X132330620Y-118960573D01*
X132330629Y-118960575D01*
X132642701Y-118999999D01*
X132642715Y-119000000D01*
X132957285Y-119000000D01*
X132957298Y-118999999D01*
X133269370Y-118960575D01*
X133269379Y-118960573D01*
X133574073Y-118882340D01*
X133866544Y-118766544D01*
X133866552Y-118766540D01*
X134142209Y-118614996D01*
X134142219Y-118614990D01*
X134344071Y-118468335D01*
X134344072Y-118468335D01*
X133336649Y-117460913D01*
X133397410Y-117429589D01*
X133562540Y-117299729D01*
X133700110Y-117140965D01*
X133760547Y-117036283D01*
X134767725Y-118043462D01*
X134767726Y-118043462D01*
X134826534Y-117972377D01*
X134995100Y-117706760D01*
X135129034Y-117422137D01*
X135129036Y-117422132D01*
X135226244Y-117122958D01*
X135285191Y-116813949D01*
X135285192Y-116813942D01*
X135304943Y-116500005D01*
X135304943Y-116499994D01*
X135285192Y-116186057D01*
X135285191Y-116186050D01*
X135226244Y-115877041D01*
X135129036Y-115577867D01*
X135129034Y-115577862D01*
X134995099Y-115293238D01*
X134995096Y-115293232D01*
X134826544Y-115027635D01*
X134767724Y-114956536D01*
X133763170Y-115961091D01*
X133756962Y-115947498D01*
X133635106Y-115776376D01*
X133483068Y-115631408D01*
X133337730Y-115538005D01*
X134344072Y-114531663D01*
X134344071Y-114531662D01*
X134142227Y-114385014D01*
X134142209Y-114385003D01*
X133866552Y-114233459D01*
X133866544Y-114233455D01*
X133574073Y-114117659D01*
X133269379Y-114039426D01*
X133269370Y-114039424D01*
X132957298Y-114000000D01*
X132642701Y-114000000D01*
X132330629Y-114039424D01*
X132330620Y-114039426D01*
X132025926Y-114117659D01*
X131733455Y-114233455D01*
X131733447Y-114233459D01*
X131457787Y-114385004D01*
X131457782Y-114385007D01*
X131255927Y-114531662D01*
X131255927Y-114531663D01*
X132263350Y-115539086D01*
X132202590Y-115570411D01*
X132037460Y-115700271D01*
X131899890Y-115859035D01*
X131839452Y-115963715D01*
X130832273Y-114956536D01*
X130773460Y-115027628D01*
X130773457Y-115027632D01*
X130604903Y-115293232D01*
X130604900Y-115293238D01*
X130470965Y-115577862D01*
X130470963Y-115577867D01*
X130373755Y-115877041D01*
X130314808Y-116186050D01*
X130314807Y-116186057D01*
X130295057Y-116499994D01*
X130295057Y-116500005D01*
X125304943Y-116500005D01*
X125304943Y-116499994D01*
X125285192Y-116186057D01*
X125285191Y-116186050D01*
X125226244Y-115877041D01*
X125129036Y-115577867D01*
X125129034Y-115577862D01*
X124995099Y-115293238D01*
X124995096Y-115293232D01*
X124826544Y-115027635D01*
X124767724Y-114956536D01*
X123763170Y-115961091D01*
X123756962Y-115947498D01*
X123635106Y-115776376D01*
X123483068Y-115631408D01*
X123337730Y-115538005D01*
X124344072Y-114531663D01*
X124344071Y-114531662D01*
X124142227Y-114385014D01*
X124142209Y-114385003D01*
X123866552Y-114233459D01*
X123866544Y-114233455D01*
X123574073Y-114117659D01*
X123269379Y-114039426D01*
X123269370Y-114039424D01*
X122957298Y-114000000D01*
X122642701Y-114000000D01*
X122330629Y-114039424D01*
X122330620Y-114039426D01*
X122025926Y-114117659D01*
X121733455Y-114233455D01*
X121733447Y-114233459D01*
X121457787Y-114385004D01*
X121457782Y-114385007D01*
X121255927Y-114531662D01*
X121255927Y-114531663D01*
X122263350Y-115539086D01*
X122202590Y-115570411D01*
X122037460Y-115700271D01*
X121899890Y-115859035D01*
X121839452Y-115963715D01*
X120832273Y-114956536D01*
X120773460Y-115027628D01*
X120773457Y-115027632D01*
X120604903Y-115293232D01*
X120604900Y-115293238D01*
X120470965Y-115577862D01*
X120470963Y-115577867D01*
X120373755Y-115877041D01*
X120314808Y-116186050D01*
X120314807Y-116186057D01*
X120295057Y-116499994D01*
X120295057Y-116500005D01*
X114205583Y-116500005D01*
X114205583Y-116500000D01*
X114185300Y-116294066D01*
X114125232Y-116096046D01*
X114027685Y-115913550D01*
X113975702Y-115850209D01*
X113896410Y-115753589D01*
X113736452Y-115622317D01*
X113736453Y-115622317D01*
X113736450Y-115622315D01*
X113553954Y-115524768D01*
X113355934Y-115464700D01*
X113355932Y-115464699D01*
X113355934Y-115464699D01*
X113236805Y-115452966D01*
X113201608Y-115449500D01*
X112198392Y-115449500D01*
X112160298Y-115453251D01*
X112044067Y-115464699D01*
X111846043Y-115524769D01*
X111746715Y-115577862D01*
X111663550Y-115622315D01*
X111663548Y-115622316D01*
X111663547Y-115622317D01*
X111503589Y-115753589D01*
X111372317Y-115913547D01*
X111274769Y-116096043D01*
X111214699Y-116294067D01*
X111194417Y-116500000D01*
X100000500Y-116500000D01*
X100000500Y-111120000D01*
X103840239Y-111120000D01*
X106659535Y-111120000D01*
X106621466Y-111267030D01*
X106611114Y-111471165D01*
X106642065Y-111673205D01*
X106659396Y-111720000D01*
X103841274Y-111720000D01*
X103876035Y-111917146D01*
X103876038Y-111917157D01*
X103964632Y-112189821D01*
X104090308Y-112447495D01*
X104090313Y-112447502D01*
X104250631Y-112685184D01*
X104250636Y-112685191D01*
X104442468Y-112898243D01*
X104442475Y-112898250D01*
X104662092Y-113082531D01*
X104905226Y-113234459D01*
X105167146Y-113351073D01*
X105167157Y-113351077D01*
X105442736Y-113430098D01*
X105442746Y-113430100D01*
X105726646Y-113469999D01*
X105726648Y-113470000D01*
X107320000Y-113470000D01*
X107320000Y-112384350D01*
X107517801Y-112425000D01*
X107670967Y-112425000D01*
X107823348Y-112409504D01*
X107920000Y-112379179D01*
X107920000Y-113470000D01*
X109441578Y-113470000D01*
X109441602Y-113469999D01*
X109656000Y-113455007D01*
X109656011Y-113455005D01*
X109936433Y-113395399D01*
X110205841Y-113297342D01*
X110458981Y-113162747D01*
X110458988Y-113162742D01*
X110690924Y-112994232D01*
X110690931Y-112994226D01*
X110897165Y-112795068D01*
X110908937Y-112780000D01*
X144100239Y-112780000D01*
X146919535Y-112780000D01*
X146881466Y-112927030D01*
X146871114Y-113131165D01*
X146902065Y-113333205D01*
X146919396Y-113380000D01*
X144101274Y-113380000D01*
X144136035Y-113577146D01*
X144136038Y-113577157D01*
X144224632Y-113849821D01*
X144350308Y-114107495D01*
X144350313Y-114107502D01*
X144510631Y-114345184D01*
X144510636Y-114345191D01*
X144702468Y-114558243D01*
X144702475Y-114558250D01*
X144922092Y-114742531D01*
X145165226Y-114894459D01*
X145427146Y-115011073D01*
X145427157Y-115011077D01*
X145702736Y-115090098D01*
X145702746Y-115090100D01*
X145986646Y-115129999D01*
X145986648Y-115130000D01*
X147580000Y-115130000D01*
X147580000Y-114044350D01*
X147777801Y-114085000D01*
X147930967Y-114085000D01*
X148083348Y-114069504D01*
X148180000Y-114039179D01*
X148180000Y-115130000D01*
X149701578Y-115130000D01*
X149701602Y-115129999D01*
X149916000Y-115115007D01*
X149916011Y-115115005D01*
X150196433Y-115055399D01*
X150465841Y-114957342D01*
X150718981Y-114822747D01*
X150718988Y-114822742D01*
X150950924Y-114654232D01*
X150950931Y-114654226D01*
X151157165Y-114455068D01*
X151333676Y-114229145D01*
X151477024Y-113980859D01*
X151477030Y-113980847D01*
X151584426Y-113715033D01*
X151653785Y-113436847D01*
X151659761Y-113380000D01*
X148840465Y-113380000D01*
X148878534Y-113232970D01*
X148888886Y-113028835D01*
X148857935Y-112826795D01*
X148840604Y-112780000D01*
X151658726Y-112780000D01*
X151623964Y-112582853D01*
X151623961Y-112582842D01*
X151535367Y-112310178D01*
X151409691Y-112052504D01*
X151409686Y-112052497D01*
X151249368Y-111814815D01*
X151249363Y-111814808D01*
X151057531Y-111601756D01*
X151057524Y-111601749D01*
X150837907Y-111417468D01*
X150594773Y-111265540D01*
X150332853Y-111148926D01*
X150332842Y-111148922D01*
X150057263Y-111069901D01*
X150057253Y-111069899D01*
X149773353Y-111030000D01*
X148180000Y-111030000D01*
X148180000Y-112115649D01*
X147982199Y-112075000D01*
X147829033Y-112075000D01*
X147676652Y-112090496D01*
X147580000Y-112120820D01*
X147580000Y-111030000D01*
X146058397Y-111030000D01*
X145843999Y-111044992D01*
X145843988Y-111044994D01*
X145563566Y-111104600D01*
X145294158Y-111202657D01*
X145041018Y-111337252D01*
X145041011Y-111337257D01*
X144809075Y-111505767D01*
X144809068Y-111505773D01*
X144602834Y-111704931D01*
X144426323Y-111930854D01*
X144282975Y-112179140D01*
X144282969Y-112179152D01*
X144175573Y-112444966D01*
X144106214Y-112723152D01*
X144100239Y-112780000D01*
X110908937Y-112780000D01*
X111073676Y-112569145D01*
X111217024Y-112320859D01*
X111217030Y-112320847D01*
X111324426Y-112055033D01*
X111393785Y-111776847D01*
X111399761Y-111720000D01*
X108580465Y-111720000D01*
X108618534Y-111572970D01*
X108628886Y-111368835D01*
X108597935Y-111166795D01*
X108580604Y-111120000D01*
X111398726Y-111120000D01*
X111363964Y-110922853D01*
X111363961Y-110922842D01*
X111275367Y-110650178D01*
X111149691Y-110392504D01*
X111149686Y-110392497D01*
X110989368Y-110154815D01*
X110989363Y-110154808D01*
X110797531Y-109941756D01*
X110797524Y-109941749D01*
X110577907Y-109757468D01*
X110334773Y-109605540D01*
X110072853Y-109488926D01*
X110072842Y-109488922D01*
X109797263Y-109409901D01*
X109797253Y-109409899D01*
X109513353Y-109370000D01*
X107920000Y-109370000D01*
X107920000Y-110455649D01*
X107722199Y-110415000D01*
X107569033Y-110415000D01*
X107416652Y-110430496D01*
X107320000Y-110460820D01*
X107320000Y-109370000D01*
X105798397Y-109370000D01*
X105583999Y-109384992D01*
X105583988Y-109384994D01*
X105303566Y-109444600D01*
X105034158Y-109542657D01*
X104781018Y-109677252D01*
X104781011Y-109677257D01*
X104549075Y-109845767D01*
X104549068Y-109845773D01*
X104342834Y-110044931D01*
X104166323Y-110270854D01*
X104022975Y-110519140D01*
X104022969Y-110519152D01*
X103915573Y-110784966D01*
X103846214Y-111063152D01*
X103840239Y-111120000D01*
X100000500Y-111120000D01*
X100000500Y-108000000D01*
X141294417Y-108000000D01*
X141314699Y-108205932D01*
X141314700Y-108205934D01*
X141374768Y-108403954D01*
X141472315Y-108586450D01*
X141472317Y-108586452D01*
X141603589Y-108746410D01*
X141700209Y-108825702D01*
X141763550Y-108877685D01*
X141946046Y-108975232D01*
X142144066Y-109035300D01*
X142144065Y-109035300D01*
X142182647Y-109039100D01*
X142298392Y-109050500D01*
X142298395Y-109050500D01*
X143301605Y-109050500D01*
X143301608Y-109050500D01*
X143455934Y-109035300D01*
X143653954Y-108975232D01*
X143836450Y-108877685D01*
X143996410Y-108746410D01*
X144127685Y-108586450D01*
X144225232Y-108403954D01*
X144285300Y-108205934D01*
X144305583Y-108000000D01*
X144285300Y-107794066D01*
X144225232Y-107596046D01*
X144127685Y-107413550D01*
X144075702Y-107350209D01*
X143996410Y-107253589D01*
X143836452Y-107122317D01*
X143836453Y-107122317D01*
X143836450Y-107122315D01*
X143653954Y-107024768D01*
X143455934Y-106964700D01*
X143455932Y-106964699D01*
X143455934Y-106964699D01*
X143336805Y-106952966D01*
X143301608Y-106949500D01*
X142298392Y-106949500D01*
X142260298Y-106953251D01*
X142144067Y-106964699D01*
X141946043Y-107024769D01*
X141835898Y-107083643D01*
X141763550Y-107122315D01*
X141763548Y-107122316D01*
X141763547Y-107122317D01*
X141603589Y-107253589D01*
X141472317Y-107413547D01*
X141374769Y-107596043D01*
X141314699Y-107794067D01*
X141294417Y-108000000D01*
X100000500Y-108000000D01*
X100000500Y-105160000D01*
X141289810Y-105160000D01*
X142469078Y-105160000D01*
X142448156Y-105179413D01*
X142381083Y-105295587D01*
X142351232Y-105426370D01*
X142361257Y-105560140D01*
X142410266Y-105685013D01*
X142470067Y-105760000D01*
X141290872Y-105760000D01*
X141305770Y-105821409D01*
X141393040Y-106012507D01*
X141514889Y-106183619D01*
X141514895Y-106183625D01*
X141666932Y-106328592D01*
X141843657Y-106442166D01*
X142038685Y-106520244D01*
X142244962Y-106560000D01*
X142500000Y-106560000D01*
X142500000Y-105794047D01*
X142604741Y-105865459D01*
X142732927Y-105905000D01*
X142833346Y-105905000D01*
X142932647Y-105890033D01*
X143053509Y-105831829D01*
X143100000Y-105788691D01*
X143100000Y-106560000D01*
X143302398Y-106560000D01*
X143459122Y-106545034D01*
X143459126Y-106545033D01*
X143660686Y-106485850D01*
X143847414Y-106389586D01*
X144012537Y-106259731D01*
X144012540Y-106259728D01*
X144150105Y-106100969D01*
X144150114Y-106100958D01*
X144255144Y-105919039D01*
X144255149Y-105919029D01*
X144310190Y-105760000D01*
X143130922Y-105760000D01*
X143151844Y-105740587D01*
X143218917Y-105624413D01*
X143248768Y-105493630D01*
X143238743Y-105359860D01*
X143189734Y-105234987D01*
X143129933Y-105160000D01*
X144309128Y-105160000D01*
X144309127Y-105159999D01*
X144294229Y-105098590D01*
X144206959Y-104907492D01*
X144085110Y-104736380D01*
X144085104Y-104736374D01*
X143933067Y-104591407D01*
X143756342Y-104477833D01*
X143561314Y-104399755D01*
X143355038Y-104360000D01*
X143100000Y-104360000D01*
X143100000Y-105125952D01*
X142995259Y-105054541D01*
X142867073Y-105015000D01*
X142766654Y-105015000D01*
X142667353Y-105029967D01*
X142546491Y-105088171D01*
X142500000Y-105131308D01*
X142500000Y-104360000D01*
X142297602Y-104360000D01*
X142140877Y-104374965D01*
X142140873Y-104374966D01*
X141939313Y-104434149D01*
X141752585Y-104530413D01*
X141587462Y-104660268D01*
X141587459Y-104660271D01*
X141449894Y-104819030D01*
X141449885Y-104819041D01*
X141344855Y-105000960D01*
X141344850Y-105000970D01*
X141289810Y-105160000D01*
X100000500Y-105160000D01*
X100000500Y-102620000D01*
X144100239Y-102620000D01*
X146919535Y-102620000D01*
X146881466Y-102767030D01*
X146871114Y-102971165D01*
X146902065Y-103173205D01*
X146919396Y-103220000D01*
X144101274Y-103220000D01*
X144136035Y-103417146D01*
X144136038Y-103417157D01*
X144224632Y-103689821D01*
X144350308Y-103947495D01*
X144350313Y-103947502D01*
X144510631Y-104185184D01*
X144510636Y-104185191D01*
X144702468Y-104398243D01*
X144702475Y-104398250D01*
X144922092Y-104582531D01*
X145165226Y-104734459D01*
X145427146Y-104851073D01*
X145427157Y-104851077D01*
X145702736Y-104930098D01*
X145702746Y-104930100D01*
X145986646Y-104969999D01*
X145986648Y-104970000D01*
X147580000Y-104970000D01*
X147580000Y-103884350D01*
X147777801Y-103925000D01*
X147930967Y-103925000D01*
X148083348Y-103909504D01*
X148180000Y-103879179D01*
X148180000Y-104970000D01*
X149701578Y-104970000D01*
X149701602Y-104969999D01*
X149916000Y-104955007D01*
X149916011Y-104955005D01*
X150196433Y-104895399D01*
X150465841Y-104797342D01*
X150718981Y-104662747D01*
X150718988Y-104662742D01*
X150950924Y-104494232D01*
X150950931Y-104494226D01*
X151157165Y-104295068D01*
X151333676Y-104069145D01*
X151477024Y-103820859D01*
X151477030Y-103820847D01*
X151584426Y-103555033D01*
X151653785Y-103276847D01*
X151659761Y-103220000D01*
X148840465Y-103220000D01*
X148878534Y-103072970D01*
X148888886Y-102868835D01*
X148857935Y-102666795D01*
X148840604Y-102620000D01*
X151658726Y-102620000D01*
X151623964Y-102422853D01*
X151623961Y-102422842D01*
X151535367Y-102150178D01*
X151409691Y-101892504D01*
X151409686Y-101892497D01*
X151249368Y-101654815D01*
X151249363Y-101654808D01*
X151057531Y-101441756D01*
X151057524Y-101441749D01*
X150837907Y-101257468D01*
X150594773Y-101105540D01*
X150332853Y-100988926D01*
X150332842Y-100988922D01*
X150057263Y-100909901D01*
X150057253Y-100909899D01*
X149773353Y-100870000D01*
X148180000Y-100870000D01*
X148180000Y-101955649D01*
X147982199Y-101915000D01*
X147829033Y-101915000D01*
X147676652Y-101930496D01*
X147580000Y-101960820D01*
X147580000Y-100870000D01*
X146058397Y-100870000D01*
X145843999Y-100884992D01*
X145843988Y-100884994D01*
X145563566Y-100944600D01*
X145294158Y-101042657D01*
X145041018Y-101177252D01*
X145041011Y-101177257D01*
X144809075Y-101345767D01*
X144809068Y-101345773D01*
X144602834Y-101544931D01*
X144426323Y-101770854D01*
X144282975Y-102019140D01*
X144282969Y-102019152D01*
X144175573Y-102284966D01*
X144106214Y-102563152D01*
X144100239Y-102620000D01*
X100000500Y-102620000D01*
X100000500Y-100124500D01*
X100020185Y-100057461D01*
X100072989Y-100011706D01*
X100124500Y-100000500D01*
X155375500Y-100000500D01*
X155442539Y-100020185D01*
G37*
G04 #@! TD.AperFunction*
G04 #@! TD*
M02*
