G04 #@! TF.GenerationSoftware,KiCad,Pcbnew,7.0.11+dfsg-1build4*
G04 #@! TF.CreationDate,2026-09-30T09:07:19+02:00*
G04 #@! TF.ProjectId,diplexor_2m70cm_BNC,6469706c-6578-46f7-925f-326d3730636d,rev?*
G04 #@! TF.SameCoordinates,Original*
G04 #@! TF.FileFunction,Legend,Bot*
G04 #@! TF.FilePolarity,Positive*
%FSLAX46Y46*%
G04 Gerber Fmt 4.6, Leading zero omitted, Abs format (unit mm)*
G04 Created by KiCad (PCBNEW 7.0.11+dfsg-1build4) date 2026-09-30 09:07:19*
%MOMM*%
%LPD*%
G01*
G04 APERTURE LIST*
%ADD10C,0.150000*%
%ADD11C,0.700000*%
%ADD12C,4.400000*%
%ADD13O,2.500000X1.600000*%
%ADD14O,7.000000X3.500000*%
G04 APERTURE END LIST*
D10*
X136790477Y-121962295D02*
X137171429Y-121962295D01*
X137171429Y-121962295D02*
X137209525Y-122343247D01*
X137209525Y-122343247D02*
X137171429Y-122305152D01*
X137171429Y-122305152D02*
X137095239Y-122267057D01*
X137095239Y-122267057D02*
X136904763Y-122267057D01*
X136904763Y-122267057D02*
X136828572Y-122305152D01*
X136828572Y-122305152D02*
X136790477Y-122343247D01*
X136790477Y-122343247D02*
X136752382Y-122419438D01*
X136752382Y-122419438D02*
X136752382Y-122609914D01*
X136752382Y-122609914D02*
X136790477Y-122686104D01*
X136790477Y-122686104D02*
X136828572Y-122724200D01*
X136828572Y-122724200D02*
X136904763Y-122762295D01*
X136904763Y-122762295D02*
X137095239Y-122762295D01*
X137095239Y-122762295D02*
X137171429Y-122724200D01*
X137171429Y-122724200D02*
X137209525Y-122686104D01*
X136257143Y-121962295D02*
X136180953Y-121962295D01*
X136180953Y-121962295D02*
X136104762Y-122000390D01*
X136104762Y-122000390D02*
X136066667Y-122038485D01*
X136066667Y-122038485D02*
X136028572Y-122114676D01*
X136028572Y-122114676D02*
X135990477Y-122267057D01*
X135990477Y-122267057D02*
X135990477Y-122457533D01*
X135990477Y-122457533D02*
X136028572Y-122609914D01*
X136028572Y-122609914D02*
X136066667Y-122686104D01*
X136066667Y-122686104D02*
X136104762Y-122724200D01*
X136104762Y-122724200D02*
X136180953Y-122762295D01*
X136180953Y-122762295D02*
X136257143Y-122762295D01*
X136257143Y-122762295D02*
X136333334Y-122724200D01*
X136333334Y-122724200D02*
X136371429Y-122686104D01*
X136371429Y-122686104D02*
X136409524Y-122609914D01*
X136409524Y-122609914D02*
X136447620Y-122457533D01*
X136447620Y-122457533D02*
X136447620Y-122267057D01*
X136447620Y-122267057D02*
X136409524Y-122114676D01*
X136409524Y-122114676D02*
X136371429Y-122038485D01*
X136371429Y-122038485D02*
X136333334Y-122000390D01*
X136333334Y-122000390D02*
X136257143Y-121962295D01*
X135190476Y-122762295D02*
X135457143Y-122381342D01*
X135647619Y-122762295D02*
X135647619Y-121962295D01*
X135647619Y-121962295D02*
X135342857Y-121962295D01*
X135342857Y-121962295D02*
X135266667Y-122000390D01*
X135266667Y-122000390D02*
X135228572Y-122038485D01*
X135228572Y-122038485D02*
X135190476Y-122114676D01*
X135190476Y-122114676D02*
X135190476Y-122228961D01*
X135190476Y-122228961D02*
X135228572Y-122305152D01*
X135228572Y-122305152D02*
X135266667Y-122343247D01*
X135266667Y-122343247D02*
X135342857Y-122381342D01*
X135342857Y-122381342D02*
X135647619Y-122381342D01*
X133780952Y-122686104D02*
X133819048Y-122724200D01*
X133819048Y-122724200D02*
X133933333Y-122762295D01*
X133933333Y-122762295D02*
X134009524Y-122762295D01*
X134009524Y-122762295D02*
X134123810Y-122724200D01*
X134123810Y-122724200D02*
X134200000Y-122648009D01*
X134200000Y-122648009D02*
X134238095Y-122571819D01*
X134238095Y-122571819D02*
X134276191Y-122419438D01*
X134276191Y-122419438D02*
X134276191Y-122305152D01*
X134276191Y-122305152D02*
X134238095Y-122152771D01*
X134238095Y-122152771D02*
X134200000Y-122076580D01*
X134200000Y-122076580D02*
X134123810Y-122000390D01*
X134123810Y-122000390D02*
X134009524Y-121962295D01*
X134009524Y-121962295D02*
X133933333Y-121962295D01*
X133933333Y-121962295D02*
X133819048Y-122000390D01*
X133819048Y-122000390D02*
X133780952Y-122038485D01*
X133438095Y-122762295D02*
X133438095Y-121962295D01*
X133438095Y-121962295D02*
X133133333Y-121962295D01*
X133133333Y-121962295D02*
X133057143Y-122000390D01*
X133057143Y-122000390D02*
X133019048Y-122038485D01*
X133019048Y-122038485D02*
X132980952Y-122114676D01*
X132980952Y-122114676D02*
X132980952Y-122228961D01*
X132980952Y-122228961D02*
X133019048Y-122305152D01*
X133019048Y-122305152D02*
X133057143Y-122343247D01*
X133057143Y-122343247D02*
X133133333Y-122381342D01*
X133133333Y-122381342D02*
X133438095Y-122381342D01*
X132714286Y-121962295D02*
X132523810Y-122762295D01*
X132523810Y-122762295D02*
X132371429Y-122190866D01*
X132371429Y-122190866D02*
X132219048Y-122762295D01*
X132219048Y-122762295D02*
X132028572Y-121962295D01*
X131304762Y-122000390D02*
X131380952Y-121962295D01*
X131380952Y-121962295D02*
X131495238Y-121962295D01*
X131495238Y-121962295D02*
X131609524Y-122000390D01*
X131609524Y-122000390D02*
X131685714Y-122076580D01*
X131685714Y-122076580D02*
X131723809Y-122152771D01*
X131723809Y-122152771D02*
X131761905Y-122305152D01*
X131761905Y-122305152D02*
X131761905Y-122419438D01*
X131761905Y-122419438D02*
X131723809Y-122571819D01*
X131723809Y-122571819D02*
X131685714Y-122648009D01*
X131685714Y-122648009D02*
X131609524Y-122724200D01*
X131609524Y-122724200D02*
X131495238Y-122762295D01*
X131495238Y-122762295D02*
X131419047Y-122762295D01*
X131419047Y-122762295D02*
X131304762Y-122724200D01*
X131304762Y-122724200D02*
X131266666Y-122686104D01*
X131266666Y-122686104D02*
X131266666Y-122419438D01*
X131266666Y-122419438D02*
X131419047Y-122419438D01*
X130390476Y-121962295D02*
X130200000Y-122762295D01*
X130200000Y-122762295D02*
X130047619Y-122190866D01*
X130047619Y-122190866D02*
X129895238Y-122762295D01*
X129895238Y-122762295D02*
X129704762Y-121962295D01*
X128980952Y-122762295D02*
X129438095Y-122762295D01*
X129209523Y-122762295D02*
X129209523Y-121962295D01*
X129209523Y-121962295D02*
X129285714Y-122076580D01*
X129285714Y-122076580D02*
X129361904Y-122152771D01*
X129361904Y-122152771D02*
X129438095Y-122190866D01*
X128638094Y-122686104D02*
X128599999Y-122724200D01*
X128599999Y-122724200D02*
X128638094Y-122762295D01*
X128638094Y-122762295D02*
X128676190Y-122724200D01*
X128676190Y-122724200D02*
X128638094Y-122686104D01*
X128638094Y-122686104D02*
X128638094Y-122762295D01*
X127914285Y-122228961D02*
X127914285Y-122762295D01*
X128104761Y-121924200D02*
X128295238Y-122495628D01*
X128295238Y-122495628D02*
X127799999Y-122495628D01*
X126466666Y-122000390D02*
X126542856Y-121962295D01*
X126542856Y-121962295D02*
X126657142Y-121962295D01*
X126657142Y-121962295D02*
X126771428Y-122000390D01*
X126771428Y-122000390D02*
X126847618Y-122076580D01*
X126847618Y-122076580D02*
X126885713Y-122152771D01*
X126885713Y-122152771D02*
X126923809Y-122305152D01*
X126923809Y-122305152D02*
X126923809Y-122419438D01*
X126923809Y-122419438D02*
X126885713Y-122571819D01*
X126885713Y-122571819D02*
X126847618Y-122648009D01*
X126847618Y-122648009D02*
X126771428Y-122724200D01*
X126771428Y-122724200D02*
X126657142Y-122762295D01*
X126657142Y-122762295D02*
X126580951Y-122762295D01*
X126580951Y-122762295D02*
X126466666Y-122724200D01*
X126466666Y-122724200D02*
X126428570Y-122686104D01*
X126428570Y-122686104D02*
X126428570Y-122419438D01*
X126428570Y-122419438D02*
X126580951Y-122419438D01*
X125933332Y-121962295D02*
X125857142Y-121962295D01*
X125857142Y-121962295D02*
X125780951Y-122000390D01*
X125780951Y-122000390D02*
X125742856Y-122038485D01*
X125742856Y-122038485D02*
X125704761Y-122114676D01*
X125704761Y-122114676D02*
X125666666Y-122267057D01*
X125666666Y-122267057D02*
X125666666Y-122457533D01*
X125666666Y-122457533D02*
X125704761Y-122609914D01*
X125704761Y-122609914D02*
X125742856Y-122686104D01*
X125742856Y-122686104D02*
X125780951Y-122724200D01*
X125780951Y-122724200D02*
X125857142Y-122762295D01*
X125857142Y-122762295D02*
X125933332Y-122762295D01*
X125933332Y-122762295D02*
X126009523Y-122724200D01*
X126009523Y-122724200D02*
X126047618Y-122686104D01*
X126047618Y-122686104D02*
X126085713Y-122609914D01*
X126085713Y-122609914D02*
X126123809Y-122457533D01*
X126123809Y-122457533D02*
X126123809Y-122267057D01*
X126123809Y-122267057D02*
X126085713Y-122114676D01*
X126085713Y-122114676D02*
X126047618Y-122038485D01*
X126047618Y-122038485D02*
X126009523Y-122000390D01*
X126009523Y-122000390D02*
X125933332Y-121962295D01*
X125323808Y-122686104D02*
X125285713Y-122724200D01*
X125285713Y-122724200D02*
X125323808Y-122762295D01*
X125323808Y-122762295D02*
X125361904Y-122724200D01*
X125361904Y-122724200D02*
X125323808Y-122686104D01*
X125323808Y-122686104D02*
X125323808Y-122762295D01*
X124980952Y-122038485D02*
X124942856Y-122000390D01*
X124942856Y-122000390D02*
X124866666Y-121962295D01*
X124866666Y-121962295D02*
X124676190Y-121962295D01*
X124676190Y-121962295D02*
X124599999Y-122000390D01*
X124599999Y-122000390D02*
X124561904Y-122038485D01*
X124561904Y-122038485D02*
X124523809Y-122114676D01*
X124523809Y-122114676D02*
X124523809Y-122190866D01*
X124523809Y-122190866D02*
X124561904Y-122305152D01*
X124561904Y-122305152D02*
X125019047Y-122762295D01*
X125019047Y-122762295D02*
X124523809Y-122762295D01*
X123799999Y-121962295D02*
X124180951Y-121962295D01*
X124180951Y-121962295D02*
X124219047Y-122343247D01*
X124219047Y-122343247D02*
X124180951Y-122305152D01*
X124180951Y-122305152D02*
X124104761Y-122267057D01*
X124104761Y-122267057D02*
X123914285Y-122267057D01*
X123914285Y-122267057D02*
X123838094Y-122305152D01*
X123838094Y-122305152D02*
X123799999Y-122343247D01*
X123799999Y-122343247D02*
X123761904Y-122419438D01*
X123761904Y-122419438D02*
X123761904Y-122609914D01*
X123761904Y-122609914D02*
X123799999Y-122686104D01*
X123799999Y-122686104D02*
X123838094Y-122724200D01*
X123838094Y-122724200D02*
X123914285Y-122762295D01*
X123914285Y-122762295D02*
X124104761Y-122762295D01*
X124104761Y-122762295D02*
X124180951Y-122724200D01*
X124180951Y-122724200D02*
X124219047Y-122686104D01*
X122542856Y-122343247D02*
X122809522Y-122343247D01*
X122809522Y-122762295D02*
X122809522Y-121962295D01*
X122809522Y-121962295D02*
X122428570Y-121962295D01*
X121666665Y-122762295D02*
X121933332Y-122381342D01*
X122123808Y-122762295D02*
X122123808Y-121962295D01*
X122123808Y-121962295D02*
X121819046Y-121962295D01*
X121819046Y-121962295D02*
X121742856Y-122000390D01*
X121742856Y-122000390D02*
X121704761Y-122038485D01*
X121704761Y-122038485D02*
X121666665Y-122114676D01*
X121666665Y-122114676D02*
X121666665Y-122228961D01*
X121666665Y-122228961D02*
X121704761Y-122305152D01*
X121704761Y-122305152D02*
X121742856Y-122343247D01*
X121742856Y-122343247D02*
X121819046Y-122381342D01*
X121819046Y-122381342D02*
X122123808Y-122381342D01*
X120980951Y-122228961D02*
X120980951Y-122762295D01*
X121171427Y-121924200D02*
X121361904Y-122495628D01*
X121361904Y-122495628D02*
X120866665Y-122495628D01*
X119533332Y-122762295D02*
X119990475Y-122762295D01*
X119761903Y-122762295D02*
X119761903Y-121962295D01*
X119761903Y-121962295D02*
X119838094Y-122076580D01*
X119838094Y-122076580D02*
X119914284Y-122152771D01*
X119914284Y-122152771D02*
X119990475Y-122190866D01*
X119190474Y-122686104D02*
X119152379Y-122724200D01*
X119152379Y-122724200D02*
X119190474Y-122762295D01*
X119190474Y-122762295D02*
X119228570Y-122724200D01*
X119228570Y-122724200D02*
X119190474Y-122686104D01*
X119190474Y-122686104D02*
X119190474Y-122762295D01*
X118466665Y-121962295D02*
X118619046Y-121962295D01*
X118619046Y-121962295D02*
X118695237Y-122000390D01*
X118695237Y-122000390D02*
X118733332Y-122038485D01*
X118733332Y-122038485D02*
X118809522Y-122152771D01*
X118809522Y-122152771D02*
X118847618Y-122305152D01*
X118847618Y-122305152D02*
X118847618Y-122609914D01*
X118847618Y-122609914D02*
X118809522Y-122686104D01*
X118809522Y-122686104D02*
X118771427Y-122724200D01*
X118771427Y-122724200D02*
X118695237Y-122762295D01*
X118695237Y-122762295D02*
X118542856Y-122762295D01*
X118542856Y-122762295D02*
X118466665Y-122724200D01*
X118466665Y-122724200D02*
X118428570Y-122686104D01*
X118428570Y-122686104D02*
X118390475Y-122609914D01*
X118390475Y-122609914D02*
X118390475Y-122419438D01*
X118390475Y-122419438D02*
X118428570Y-122343247D01*
X118428570Y-122343247D02*
X118466665Y-122305152D01*
X118466665Y-122305152D02*
X118542856Y-122267057D01*
X118542856Y-122267057D02*
X118695237Y-122267057D01*
X118695237Y-122267057D02*
X118771427Y-122305152D01*
X118771427Y-122305152D02*
X118809522Y-122343247D01*
X118809522Y-122343247D02*
X118847618Y-122419438D01*
X136847619Y-110962295D02*
X136847619Y-110162295D01*
X136847619Y-110162295D02*
X136657143Y-110162295D01*
X136657143Y-110162295D02*
X136542857Y-110200390D01*
X136542857Y-110200390D02*
X136466667Y-110276580D01*
X136466667Y-110276580D02*
X136428572Y-110352771D01*
X136428572Y-110352771D02*
X136390476Y-110505152D01*
X136390476Y-110505152D02*
X136390476Y-110619438D01*
X136390476Y-110619438D02*
X136428572Y-110771819D01*
X136428572Y-110771819D02*
X136466667Y-110848009D01*
X136466667Y-110848009D02*
X136542857Y-110924200D01*
X136542857Y-110924200D02*
X136657143Y-110962295D01*
X136657143Y-110962295D02*
X136847619Y-110962295D01*
X136047619Y-110962295D02*
X136047619Y-110162295D01*
X135666667Y-110962295D02*
X135666667Y-110162295D01*
X135666667Y-110162295D02*
X135361905Y-110162295D01*
X135361905Y-110162295D02*
X135285715Y-110200390D01*
X135285715Y-110200390D02*
X135247620Y-110238485D01*
X135247620Y-110238485D02*
X135209524Y-110314676D01*
X135209524Y-110314676D02*
X135209524Y-110428961D01*
X135209524Y-110428961D02*
X135247620Y-110505152D01*
X135247620Y-110505152D02*
X135285715Y-110543247D01*
X135285715Y-110543247D02*
X135361905Y-110581342D01*
X135361905Y-110581342D02*
X135666667Y-110581342D01*
X134485715Y-110962295D02*
X134866667Y-110962295D01*
X134866667Y-110962295D02*
X134866667Y-110162295D01*
X134219048Y-110543247D02*
X133952382Y-110543247D01*
X133838096Y-110962295D02*
X134219048Y-110962295D01*
X134219048Y-110962295D02*
X134219048Y-110162295D01*
X134219048Y-110162295D02*
X133838096Y-110162295D01*
X133571429Y-110162295D02*
X133038095Y-110962295D01*
X133038095Y-110162295D02*
X133571429Y-110962295D01*
X132580952Y-110162295D02*
X132428571Y-110162295D01*
X132428571Y-110162295D02*
X132352381Y-110200390D01*
X132352381Y-110200390D02*
X132276190Y-110276580D01*
X132276190Y-110276580D02*
X132238095Y-110428961D01*
X132238095Y-110428961D02*
X132238095Y-110695628D01*
X132238095Y-110695628D02*
X132276190Y-110848009D01*
X132276190Y-110848009D02*
X132352381Y-110924200D01*
X132352381Y-110924200D02*
X132428571Y-110962295D01*
X132428571Y-110962295D02*
X132580952Y-110962295D01*
X132580952Y-110962295D02*
X132657143Y-110924200D01*
X132657143Y-110924200D02*
X132733333Y-110848009D01*
X132733333Y-110848009D02*
X132771429Y-110695628D01*
X132771429Y-110695628D02*
X132771429Y-110428961D01*
X132771429Y-110428961D02*
X132733333Y-110276580D01*
X132733333Y-110276580D02*
X132657143Y-110200390D01*
X132657143Y-110200390D02*
X132580952Y-110162295D01*
X131438095Y-110962295D02*
X131704762Y-110581342D01*
X131895238Y-110962295D02*
X131895238Y-110162295D01*
X131895238Y-110162295D02*
X131590476Y-110162295D01*
X131590476Y-110162295D02*
X131514286Y-110200390D01*
X131514286Y-110200390D02*
X131476191Y-110238485D01*
X131476191Y-110238485D02*
X131438095Y-110314676D01*
X131438095Y-110314676D02*
X131438095Y-110428961D01*
X131438095Y-110428961D02*
X131476191Y-110505152D01*
X131476191Y-110505152D02*
X131514286Y-110543247D01*
X131514286Y-110543247D02*
X131590476Y-110581342D01*
X131590476Y-110581342D02*
X131895238Y-110581342D01*
X130523810Y-110238485D02*
X130485714Y-110200390D01*
X130485714Y-110200390D02*
X130409524Y-110162295D01*
X130409524Y-110162295D02*
X130219048Y-110162295D01*
X130219048Y-110162295D02*
X130142857Y-110200390D01*
X130142857Y-110200390D02*
X130104762Y-110238485D01*
X130104762Y-110238485D02*
X130066667Y-110314676D01*
X130066667Y-110314676D02*
X130066667Y-110390866D01*
X130066667Y-110390866D02*
X130104762Y-110505152D01*
X130104762Y-110505152D02*
X130561905Y-110962295D01*
X130561905Y-110962295D02*
X130066667Y-110962295D01*
X129723809Y-110962295D02*
X129723809Y-110428961D01*
X129723809Y-110505152D02*
X129685714Y-110467057D01*
X129685714Y-110467057D02*
X129609524Y-110428961D01*
X129609524Y-110428961D02*
X129495238Y-110428961D01*
X129495238Y-110428961D02*
X129419047Y-110467057D01*
X129419047Y-110467057D02*
X129380952Y-110543247D01*
X129380952Y-110543247D02*
X129380952Y-110962295D01*
X129380952Y-110543247D02*
X129342857Y-110467057D01*
X129342857Y-110467057D02*
X129266666Y-110428961D01*
X129266666Y-110428961D02*
X129152381Y-110428961D01*
X129152381Y-110428961D02*
X129076190Y-110467057D01*
X129076190Y-110467057D02*
X129038095Y-110543247D01*
X129038095Y-110543247D02*
X129038095Y-110962295D01*
X128085714Y-110124200D02*
X128771428Y-111152771D01*
X127895238Y-110162295D02*
X127361904Y-110162295D01*
X127361904Y-110162295D02*
X127704762Y-110962295D01*
X126904761Y-110162295D02*
X126828571Y-110162295D01*
X126828571Y-110162295D02*
X126752380Y-110200390D01*
X126752380Y-110200390D02*
X126714285Y-110238485D01*
X126714285Y-110238485D02*
X126676190Y-110314676D01*
X126676190Y-110314676D02*
X126638095Y-110467057D01*
X126638095Y-110467057D02*
X126638095Y-110657533D01*
X126638095Y-110657533D02*
X126676190Y-110809914D01*
X126676190Y-110809914D02*
X126714285Y-110886104D01*
X126714285Y-110886104D02*
X126752380Y-110924200D01*
X126752380Y-110924200D02*
X126828571Y-110962295D01*
X126828571Y-110962295D02*
X126904761Y-110962295D01*
X126904761Y-110962295D02*
X126980952Y-110924200D01*
X126980952Y-110924200D02*
X127019047Y-110886104D01*
X127019047Y-110886104D02*
X127057142Y-110809914D01*
X127057142Y-110809914D02*
X127095238Y-110657533D01*
X127095238Y-110657533D02*
X127095238Y-110467057D01*
X127095238Y-110467057D02*
X127057142Y-110314676D01*
X127057142Y-110314676D02*
X127019047Y-110238485D01*
X127019047Y-110238485D02*
X126980952Y-110200390D01*
X126980952Y-110200390D02*
X126904761Y-110162295D01*
X125952380Y-110924200D02*
X126028571Y-110962295D01*
X126028571Y-110962295D02*
X126180952Y-110962295D01*
X126180952Y-110962295D02*
X126257142Y-110924200D01*
X126257142Y-110924200D02*
X126295237Y-110886104D01*
X126295237Y-110886104D02*
X126333333Y-110809914D01*
X126333333Y-110809914D02*
X126333333Y-110581342D01*
X126333333Y-110581342D02*
X126295237Y-110505152D01*
X126295237Y-110505152D02*
X126257142Y-110467057D01*
X126257142Y-110467057D02*
X126180952Y-110428961D01*
X126180952Y-110428961D02*
X126028571Y-110428961D01*
X126028571Y-110428961D02*
X125952380Y-110467057D01*
X125609523Y-110962295D02*
X125609523Y-110428961D01*
X125609523Y-110505152D02*
X125571428Y-110467057D01*
X125571428Y-110467057D02*
X125495238Y-110428961D01*
X125495238Y-110428961D02*
X125380952Y-110428961D01*
X125380952Y-110428961D02*
X125304761Y-110467057D01*
X125304761Y-110467057D02*
X125266666Y-110543247D01*
X125266666Y-110543247D02*
X125266666Y-110962295D01*
X125266666Y-110543247D02*
X125228571Y-110467057D01*
X125228571Y-110467057D02*
X125152380Y-110428961D01*
X125152380Y-110428961D02*
X125038095Y-110428961D01*
X125038095Y-110428961D02*
X124961904Y-110467057D01*
X124961904Y-110467057D02*
X124923809Y-110543247D01*
X124923809Y-110543247D02*
X124923809Y-110962295D01*
X123666666Y-110543247D02*
X123552380Y-110581342D01*
X123552380Y-110581342D02*
X123514285Y-110619438D01*
X123514285Y-110619438D02*
X123476189Y-110695628D01*
X123476189Y-110695628D02*
X123476189Y-110809914D01*
X123476189Y-110809914D02*
X123514285Y-110886104D01*
X123514285Y-110886104D02*
X123552380Y-110924200D01*
X123552380Y-110924200D02*
X123628570Y-110962295D01*
X123628570Y-110962295D02*
X123933332Y-110962295D01*
X123933332Y-110962295D02*
X123933332Y-110162295D01*
X123933332Y-110162295D02*
X123666666Y-110162295D01*
X123666666Y-110162295D02*
X123590475Y-110200390D01*
X123590475Y-110200390D02*
X123552380Y-110238485D01*
X123552380Y-110238485D02*
X123514285Y-110314676D01*
X123514285Y-110314676D02*
X123514285Y-110390866D01*
X123514285Y-110390866D02*
X123552380Y-110467057D01*
X123552380Y-110467057D02*
X123590475Y-110505152D01*
X123590475Y-110505152D02*
X123666666Y-110543247D01*
X123666666Y-110543247D02*
X123933332Y-110543247D01*
X123133332Y-110962295D02*
X123133332Y-110162295D01*
X123133332Y-110162295D02*
X122676189Y-110962295D01*
X122676189Y-110962295D02*
X122676189Y-110162295D01*
X121838094Y-110886104D02*
X121876190Y-110924200D01*
X121876190Y-110924200D02*
X121990475Y-110962295D01*
X121990475Y-110962295D02*
X122066666Y-110962295D01*
X122066666Y-110962295D02*
X122180952Y-110924200D01*
X122180952Y-110924200D02*
X122257142Y-110848009D01*
X122257142Y-110848009D02*
X122295237Y-110771819D01*
X122295237Y-110771819D02*
X122333333Y-110619438D01*
X122333333Y-110619438D02*
X122333333Y-110505152D01*
X122333333Y-110505152D02*
X122295237Y-110352771D01*
X122295237Y-110352771D02*
X122257142Y-110276580D01*
X122257142Y-110276580D02*
X122180952Y-110200390D01*
X122180952Y-110200390D02*
X122066666Y-110162295D01*
X122066666Y-110162295D02*
X121990475Y-110162295D01*
X121990475Y-110162295D02*
X121876190Y-110200390D01*
X121876190Y-110200390D02*
X121838094Y-110238485D01*
X120961904Y-110428961D02*
X120771428Y-110962295D01*
X120771428Y-110962295D02*
X120580951Y-110428961D01*
X119857142Y-110962295D02*
X120314285Y-110962295D01*
X120085713Y-110962295D02*
X120085713Y-110162295D01*
X120085713Y-110162295D02*
X120161904Y-110276580D01*
X120161904Y-110276580D02*
X120238094Y-110352771D01*
X120238094Y-110352771D02*
X120314285Y-110390866D01*
X119514284Y-110886104D02*
X119476189Y-110924200D01*
X119476189Y-110924200D02*
X119514284Y-110962295D01*
X119514284Y-110962295D02*
X119552380Y-110924200D01*
X119552380Y-110924200D02*
X119514284Y-110886104D01*
X119514284Y-110886104D02*
X119514284Y-110962295D01*
X118714285Y-110962295D02*
X119171428Y-110962295D01*
X118942856Y-110962295D02*
X118942856Y-110162295D01*
X118942856Y-110162295D02*
X119019047Y-110276580D01*
X119019047Y-110276580D02*
X119095237Y-110352771D01*
X119095237Y-110352771D02*
X119171428Y-110390866D01*
%LPC*%
D11*
G04 #@! TO.C,H2*
X131150000Y-116500000D03*
X131633274Y-115333274D03*
X131633274Y-117666726D03*
X132800000Y-114850000D03*
D12*
X132800000Y-116500000D03*
D11*
X132800000Y-118150000D03*
X133966726Y-115333274D03*
X133966726Y-117666726D03*
X134450000Y-116500000D03*
G04 #@! TD*
D13*
G04 #@! TO.C,J3*
X142800000Y-125000000D03*
D14*
X147880000Y-119920000D03*
D13*
X142800000Y-122460000D03*
D14*
X147880000Y-130080000D03*
G04 #@! TD*
D11*
G04 #@! TO.C,H1*
X121150000Y-116500000D03*
X121633274Y-115333274D03*
X121633274Y-117666726D03*
X122800000Y-114850000D03*
D12*
X122800000Y-116500000D03*
D11*
X122800000Y-118150000D03*
X123966726Y-115333274D03*
X123966726Y-117666726D03*
X124450000Y-116500000D03*
G04 #@! TD*
D13*
G04 #@! TO.C,J2*
X142800000Y-108000000D03*
D14*
X147880000Y-102920000D03*
D13*
X142800000Y-105460000D03*
D14*
X147880000Y-113080000D03*
G04 #@! TD*
D13*
G04 #@! TO.C,J1*
X112700000Y-116500000D03*
D14*
X107620000Y-121580000D03*
D13*
X112700000Y-119040000D03*
D14*
X107620000Y-111420000D03*
G04 #@! TD*
%LPD*%
M02*
