G04 #@! TF.GenerationSoftware,KiCad,Pcbnew,7.0.11+dfsg-1build4*
G04 #@! TF.CreationDate,2026-09-30T09:07:19+02:00*
G04 #@! TF.ProjectId,diplexor_2m70cm_BNC,6469706c-6578-46f7-925f-326d3730636d,rev?*
G04 #@! TF.SameCoordinates,Original*
G04 #@! TF.FileFunction,Soldermask,Top*
G04 #@! TF.FilePolarity,Negative*
%FSLAX46Y46*%
G04 Gerber Fmt 4.6, Leading zero omitted, Abs format (unit mm)*
G04 Created by KiCad (PCBNEW 7.0.11+dfsg-1build4) date 2026-09-30 09:07:19*
%MOMM*%
%LPD*%
G01*
G04 APERTURE LIST*
G04 Aperture macros list*
%AMRoundRect*
0 Rectangle with rounded corners*
0 $1 Rounding radius*
0 $2 $3 $4 $5 $6 $7 $8 $9 X,Y pos of 4 corners*
0 Add a 4 corners polygon primitive as box body*
4,1,4,$2,$3,$4,$5,$6,$7,$8,$9,$2,$3,0*
0 Add four circle primitives for the rounded corners*
1,1,$1+$1,$2,$3*
1,1,$1+$1,$4,$5*
1,1,$1+$1,$6,$7*
1,1,$1+$1,$8,$9*
0 Add four rect primitives between the rounded corners*
20,1,$1+$1,$2,$3,$4,$5,0*
20,1,$1+$1,$4,$5,$6,$7,0*
20,1,$1+$1,$6,$7,$8,$9,0*
20,1,$1+$1,$8,$9,$2,$3,0*%
G04 Aperture macros list end*
%ADD10RoundRect,0.250000X0.475000X-0.337500X0.475000X0.337500X-0.475000X0.337500X-0.475000X-0.337500X0*%
%ADD11RoundRect,0.250000X-0.337500X-0.475000X0.337500X-0.475000X0.337500X0.475000X-0.337500X0.475000X0*%
%ADD12RoundRect,0.250000X-0.325000X-0.450000X0.325000X-0.450000X0.325000X0.450000X-0.325000X0.450000X0*%
%ADD13RoundRect,0.250000X-0.450000X0.325000X-0.450000X-0.325000X0.450000X-0.325000X0.450000X0.325000X0*%
%ADD14C,0.700000*%
%ADD15C,4.400000*%
%ADD16O,2.500000X1.600000*%
%ADD17O,7.000000X3.500000*%
G04 APERTURE END LIST*
D10*
G04 #@! TO.C,C1*
X122800000Y-107997500D03*
X122800000Y-105922500D03*
G04 #@! TD*
D11*
G04 #@! TO.C,C5*
X136762500Y-125000000D03*
X138837500Y-125000000D03*
G04 #@! TD*
G04 #@! TO.C,C3*
X116762500Y-125000000D03*
X118837500Y-125000000D03*
G04 #@! TD*
D12*
G04 #@! TO.C,L2*
X126775000Y-108000000D03*
X128825000Y-108000000D03*
G04 #@! TD*
D13*
G04 #@! TO.C,L4*
X122800000Y-124995000D03*
X122800000Y-127045000D03*
G04 #@! TD*
D11*
G04 #@! TO.C,C4*
X126762500Y-125000000D03*
X128837500Y-125000000D03*
G04 #@! TD*
D14*
G04 #@! TO.C,H2*
X131150000Y-116500000D03*
X131633274Y-115333274D03*
X131633274Y-117666726D03*
X132800000Y-114850000D03*
D15*
X132800000Y-116500000D03*
D14*
X132800000Y-118150000D03*
X133966726Y-115333274D03*
X133966726Y-117666726D03*
X134450000Y-116500000D03*
G04 #@! TD*
D12*
G04 #@! TO.C,L1*
X116775000Y-108000000D03*
X118825000Y-108000000D03*
G04 #@! TD*
D16*
G04 #@! TO.C,J3*
X142800000Y-125000000D03*
D17*
X147880000Y-119920000D03*
D16*
X142800000Y-122460000D03*
D17*
X147880000Y-130080000D03*
G04 #@! TD*
D14*
G04 #@! TO.C,H1*
X121150000Y-116500000D03*
X121633274Y-115333274D03*
X121633274Y-117666726D03*
X122800000Y-114850000D03*
D15*
X122800000Y-116500000D03*
D14*
X122800000Y-118150000D03*
X123966726Y-115333274D03*
X123966726Y-117666726D03*
X124450000Y-116500000D03*
G04 #@! TD*
D16*
G04 #@! TO.C,J2*
X142800000Y-108000000D03*
D17*
X147880000Y-102920000D03*
D16*
X142800000Y-105460000D03*
D17*
X147880000Y-113080000D03*
G04 #@! TD*
D10*
G04 #@! TO.C,C2*
X132800000Y-107997500D03*
X132800000Y-105922500D03*
G04 #@! TD*
D16*
G04 #@! TO.C,J1*
X112700000Y-116500000D03*
D17*
X107620000Y-121580000D03*
D16*
X112700000Y-119040000D03*
D17*
X107620000Y-111420000D03*
G04 #@! TD*
D13*
G04 #@! TO.C,L5*
X132800000Y-124995000D03*
X132800000Y-127045000D03*
G04 #@! TD*
D12*
G04 #@! TO.C,L3*
X136775000Y-108000000D03*
X138825000Y-108000000D03*
G04 #@! TD*
M02*
